<svg xmlns="http://www.w3.org/2000/svg" xmlns:xlink="http://www.w3.org/1999/xlink" width="172" zoomAndPan="magnify" viewBox="0 0 129 38.999999" height="52" preserveAspectRatio="xMidYMid meet" version="1.0"><defs><g/><clipPath id="dd86955a5f"><path d="M 4.292969 0.929688 L 41.433594 0.929688 L 41.433594 38.070312 L 4.292969 38.070312 Z M 4.292969 0.929688 " clip-rule="nonzero"/></clipPath><clipPath id="25807ac071"><path d="M 22.863281 0.929688 C 12.605469 0.929688 4.292969 9.242188 4.292969 19.5 C 4.292969 29.757812 12.605469 38.070312 22.863281 38.070312 C 33.121094 38.070312 41.433594 29.757812 41.433594 19.5 C 41.433594 9.242188 33.121094 0.929688 22.863281 0.929688 Z M 22.863281 0.929688 " clip-rule="nonzero"/></clipPath><clipPath id="8722407e65"><path d="M 4.8125 1.449219 L 40.910156 1.449219 L 40.910156 37.550781 L 4.8125 37.550781 Z M 4.8125 1.449219 " clip-rule="nonzero"/></clipPath><clipPath id="41f5cea701"><path d="M 22.863281 1.449219 C 12.894531 1.449219 4.8125 9.53125 4.8125 19.5 C 4.8125 29.46875 12.894531 37.550781 22.863281 37.550781 C 32.832031 37.550781 40.910156 29.46875 40.910156 19.5 C 40.910156 9.53125 32.832031 1.449219 22.863281 1.449219 Z M 22.863281 1.449219 " clip-rule="nonzero"/></clipPath><clipPath id="4ccb301210"><path d="M 10.089844 6.769531 L 35.546875 6.769531 L 35.546875 32.230469 L 10.089844 32.230469 Z M 10.089844 6.769531 " clip-rule="nonzero"/></clipPath><clipPath id="db68eab048"><path d="M 22.820312 6.769531 C 15.789062 6.769531 10.089844 12.46875 10.089844 19.5 C 10.089844 26.53125 15.789062 32.230469 22.820312 32.230469 C 29.847656 32.230469 35.546875 26.53125 35.546875 19.5 C 35.546875 12.46875 29.847656 6.769531 22.820312 6.769531 Z M 22.820312 6.769531 " clip-rule="nonzero"/></clipPath><clipPath id="474b47cd4d"><path d="M 10.527344 7.179688 L 35.292969 7.179688 L 35.292969 31.945312 L 10.527344 31.945312 Z M 10.527344 7.179688 " clip-rule="nonzero"/></clipPath><clipPath id="b03e4666e2"><path d="M 20 7.179688 L 26 7.179688 L 26 11 L 20 11 Z M 20 7.179688 " clip-rule="nonzero"/></clipPath><clipPath id="29cb390d40"><path d="M 20 28 L 26 28 L 26 31.945312 L 20 31.945312 Z M 20 28 " clip-rule="nonzero"/></clipPath><clipPath id="eb47d6dbf8"><path d="M 10.527344 17 L 15 17 L 15 22 L 10.527344 22 Z M 10.527344 17 " clip-rule="nonzero"/></clipPath><clipPath id="cfe00f4671"><path d="M 31 17 L 35.292969 17 L 35.292969 22 L 31 22 Z M 31 17 " clip-rule="nonzero"/></clipPath><clipPath id="9b620e9767"><path d="M 14.855469 11.277344 L 30.804688 11.277344 L 30.804688 27.105469 L 14.855469 27.105469 Z M 14.855469 11.277344 " clip-rule="nonzero"/></clipPath><clipPath id="fee9941fe5"><path d="M 22.820312 11.277344 C 18.421875 11.277344 14.855469 14.820312 14.855469 19.191406 C 14.855469 23.5625 18.421875 27.105469 22.820312 27.105469 C 27.214844 27.105469 30.78125 23.5625 30.78125 19.191406 C 30.78125 14.820312 27.214844 11.277344 22.820312 11.277344 Z M 22.820312 11.277344 " clip-rule="nonzero"/></clipPath><clipPath id="cd0d46feb8"><path d="M 17.035156 13.742188 L 28.59375 13.742188 L 28.59375 25.300781 L 17.035156 25.300781 Z M 17.035156 13.742188 " clip-rule="nonzero"/></clipPath><clipPath id="6138f24384"><path d="M 3.898438 0.535156 L 41.828125 0.535156 L 41.828125 38.464844 L 3.898438 38.464844 Z M 3.898438 0.535156 " clip-rule="nonzero"/></clipPath><clipPath id="3c7099116b"><path d="M 22.863281 0.535156 C 12.390625 0.535156 3.898438 9.027344 3.898438 19.5 C 3.898438 29.972656 12.390625 38.464844 22.863281 38.464844 C 33.335938 38.464844 41.828125 29.972656 41.828125 19.5 C 41.828125 9.027344 33.335938 0.535156 22.863281 0.535156 Z M 22.863281 0.535156 " clip-rule="nonzero"/></clipPath><clipPath id="daaea87969"><path d="M 7.273438 18.734375 L 8.800781 18.734375 L 8.800781 20.265625 L 7.273438 20.265625 Z M 7.273438 18.734375 " clip-rule="nonzero"/></clipPath><clipPath id="6946fe7e62"><path d="M 8.035156 18.734375 C 7.613281 18.734375 7.273438 19.078125 7.273438 19.5 C 7.273438 19.921875 7.613281 20.265625 8.035156 20.265625 C 8.457031 20.265625 8.800781 19.921875 8.800781 19.5 C 8.800781 19.078125 8.457031 18.734375 8.035156 18.734375 Z M 8.035156 18.734375 " clip-rule="nonzero"/></clipPath><clipPath id="27cc65ff3d"><path d="M 10.480469 7.179688 L 35.25 7.179688 L 35.25 31.945312 L 10.480469 31.945312 Z M 10.480469 7.179688 " clip-rule="nonzero"/></clipPath><clipPath id="3104dd9cc7"><path d="M 20 7.179688 L 26 7.179688 L 26 11 L 20 11 Z M 20 7.179688 " clip-rule="nonzero"/></clipPath><clipPath id="e8d623902c"><path d="M 20 28 L 26 28 L 26 31.945312 L 20 31.945312 Z M 20 28 " clip-rule="nonzero"/></clipPath><clipPath id="52aa123940"><path d="M 10.480469 17 L 15 17 L 15 22 L 10.480469 22 Z M 10.480469 17 " clip-rule="nonzero"/></clipPath><clipPath id="7df3e0181c"><path d="M 31 17 L 35.25 17 L 35.25 22 L 31 22 Z M 31 17 " clip-rule="nonzero"/></clipPath><clipPath id="cee8ebfdff"><path d="M 17.152344 13.742188 L 28.710938 13.742188 L 28.710938 25.300781 L 17.152344 25.300781 Z M 17.152344 13.742188 " clip-rule="nonzero"/></clipPath></defs><rect x="-12.9" width="154.8" fill="#ffffff" y="-3.9" height="46.799999" fill-opacity="1"/><rect x="-12.9" width="154.8" fill="#ffffff" y="-3.9" height="46.799999" fill-opacity="1"/><g clip-path="url(#dd86955a5f)"><g clip-path="url(#25807ac071)"><path fill="#b88917" d="M 4.292969 0.929688 L 41.433594 0.929688 L 41.433594 38.070312 L 4.292969 38.070312 Z M 4.292969 0.929688 " fill-opacity="1" fill-rule="nonzero"/></g></g><g clip-path="url(#8722407e65)"><g clip-path="url(#41f5cea701)"><path fill="#ffffff" d="M 4.8125 1.449219 L 40.910156 1.449219 L 40.910156 37.550781 L 4.8125 37.550781 Z M 4.8125 1.449219 " fill-opacity="1" fill-rule="nonzero"/></g></g><g fill="#039834" fill-opacity="1"><g transform="translate(11.507194, 31.625437)"><g><path d="M 1.78125 1.515625 L 1.328125 1.125 L 1.65625 0.5 L 1.046875 -0.015625 L 0.484375 0.421875 L 0.03125 0.03125 L 2.5 -1.6875 L 3.078125 -1.203125 Z M 1.484375 -0.328125 L 1.90625 0.03125 L 2.4375 -1.03125 Z M 1.484375 -0.328125 "/></g></g></g><g fill="#039834" fill-opacity="1"><g transform="translate(13.452451, 33.249846)"><g><path d="M 0.65625 0.40625 L 0.140625 0.09375 L 1.671875 -2.375 L 2.546875 -1.84375 C 2.734375 -1.726562 2.863281 -1.601562 2.9375 -1.46875 C 3.007812 -1.332031 3.035156 -1.191406 3.015625 -1.046875 C 2.992188 -0.910156 2.941406 -0.78125 2.859375 -0.65625 L 2.796875 -0.5625 C 2.710938 -0.414062 2.609375 -0.296875 2.484375 -0.203125 C 2.367188 -0.117188 2.234375 -0.0820312 2.078125 -0.09375 C 1.929688 -0.101562 1.765625 -0.164062 1.578125 -0.28125 L 1.21875 -0.5 Z M 1.890625 -1.609375 L 1.5 -0.953125 L 1.8125 -0.765625 C 1.914062 -0.691406 2.003906 -0.660156 2.078125 -0.671875 C 2.160156 -0.691406 2.234375 -0.753906 2.296875 -0.859375 L 2.34375 -0.953125 C 2.40625 -1.046875 2.421875 -1.128906 2.390625 -1.203125 C 2.367188 -1.273438 2.304688 -1.347656 2.203125 -1.421875 Z M 1.890625 -1.609375 "/></g></g></g><g fill="#039834" fill-opacity="1"><g transform="translate(15.443753, 34.469947)"><g><path d="M 1.046875 0.5 C 0.742188 0.375 0.546875 0.203125 0.453125 -0.015625 C 0.367188 -0.242188 0.394531 -0.503906 0.53125 -0.796875 L 1.296875 -2.609375 L 1.84375 -2.375 L 1.09375 -0.625 C 1.03125 -0.46875 1.007812 -0.335938 1.03125 -0.234375 C 1.050781 -0.140625 1.128906 -0.0664062 1.265625 -0.015625 C 1.398438 0.046875 1.503906 0.0507812 1.578125 0 C 1.660156 -0.0625 1.734375 -0.164062 1.796875 -0.3125 L 2.546875 -2.0625 L 3.09375 -1.828125 L 2.328125 -0.015625 C 2.203125 0.265625 2.03125 0.453125 1.8125 0.546875 C 1.601562 0.648438 1.347656 0.632812 1.046875 0.5 Z M 1.046875 0.5 "/></g></g></g><g fill="#039834" fill-opacity="1"><g transform="translate(17.68409, 35.405785)"><g><path d="M 1.71875 0.46875 L 0.171875 0.046875 L 0.9375 -2.75 L 2.46875 -2.328125 L 2.328125 -1.8125 L 1.359375 -2.078125 L 1.203125 -1.484375 L 2.046875 -1.25 L 1.90625 -0.734375 L 1.0625 -0.96875 L 0.875 -0.328125 L 1.859375 -0.0625 Z M 1.71875 0.46875 "/></g></g></g><g fill="#039834" fill-opacity="1"><g transform="translate(19.632544, 35.935438)"><g><path d="M 0.9375 0.171875 C 0.78125 0.148438 0.628906 0.109375 0.484375 0.046875 C 0.347656 -0.00390625 0.226562 -0.0625 0.125 -0.125 L 0.34375 -0.625 C 0.414062 -0.5625 0.503906 -0.507812 0.609375 -0.46875 C 0.722656 -0.425781 0.832031 -0.394531 0.9375 -0.375 C 1.070312 -0.351562 1.179688 -0.359375 1.265625 -0.390625 C 1.347656 -0.429688 1.394531 -0.5 1.40625 -0.59375 L 1.40625 -0.609375 C 1.414062 -0.648438 1.410156 -0.695312 1.390625 -0.75 C 1.367188 -0.800781 1.320312 -0.851562 1.25 -0.90625 C 1.1875 -0.96875 1.097656 -1.035156 0.984375 -1.109375 C 0.765625 -1.253906 0.613281 -1.40625 0.53125 -1.5625 C 0.445312 -1.71875 0.421875 -1.90625 0.453125 -2.125 L 0.453125 -2.140625 C 0.492188 -2.378906 0.601562 -2.550781 0.78125 -2.65625 C 0.957031 -2.769531 1.1875 -2.804688 1.46875 -2.765625 C 1.613281 -2.742188 1.75 -2.707031 1.875 -2.65625 C 2.007812 -2.613281 2.125 -2.5625 2.21875 -2.5 L 2 -2.015625 C 1.925781 -2.078125 1.84375 -2.125 1.75 -2.15625 C 1.65625 -2.195312 1.554688 -2.222656 1.453125 -2.234375 C 1.316406 -2.253906 1.210938 -2.242188 1.140625 -2.203125 C 1.078125 -2.171875 1.039062 -2.113281 1.03125 -2.03125 L 1.03125 -2.015625 C 1.019531 -1.929688 1.035156 -1.859375 1.078125 -1.796875 C 1.128906 -1.734375 1.226562 -1.644531 1.375 -1.53125 C 1.539062 -1.414062 1.671875 -1.304688 1.765625 -1.203125 C 1.867188 -1.109375 1.9375 -1.003906 1.96875 -0.890625 C 2.007812 -0.773438 2.019531 -0.648438 2 -0.515625 L 2 -0.5 C 1.957031 -0.226562 1.84375 -0.0390625 1.65625 0.0625 C 1.46875 0.175781 1.226562 0.210938 0.9375 0.171875 Z M 0.9375 0.171875 "/></g></g></g><g fill="#039834" fill-opacity="1"><g transform="translate(21.75189, 36.225748)"><g><path d="M 1.328125 0 L 0.734375 0 L 0.75 -2.359375 L 0.0625 -2.359375 L 0.0625 -2.90625 L 2.03125 -2.890625 L 2.03125 -2.34375 L 1.34375 -2.359375 Z M 1.328125 0 "/></g></g></g><g fill="#039834" fill-opacity="1"><g transform="translate(23.961541, 36.239026)"><g><path d="M 2.328125 -0.328125 L 1.734375 -0.25 L 1.484375 -0.90625 L 0.6875 -0.796875 L 0.640625 -0.09375 L 0.046875 0 L 0.390625 -2.984375 L 1.15625 -3.09375 Z M 0.734375 -1.3125 L 1.28125 -1.390625 L 0.84375 -2.515625 Z M 0.734375 -1.3125 "/></g></g></g><g fill="#039834" fill-opacity="1"><g transform="translate(26.460838, 35.860478)"><g><path d="M 0.9375 -0.21875 C 0.769531 -0.175781 0.609375 -0.148438 0.453125 -0.140625 C 0.304688 -0.140625 0.175781 -0.148438 0.0625 -0.171875 L 0.046875 -0.703125 C 0.148438 -0.679688 0.257812 -0.671875 0.375 -0.671875 C 0.488281 -0.679688 0.601562 -0.703125 0.71875 -0.734375 C 0.84375 -0.773438 0.929688 -0.828125 0.984375 -0.890625 C 1.046875 -0.953125 1.066406 -1.03125 1.046875 -1.125 L 1.046875 -1.140625 C 1.023438 -1.191406 0.992188 -1.234375 0.953125 -1.265625 C 0.921875 -1.296875 0.859375 -1.320312 0.765625 -1.34375 C 0.679688 -1.375 0.578125 -1.398438 0.453125 -1.421875 C 0.191406 -1.453125 -0.00390625 -1.519531 -0.140625 -1.625 C -0.285156 -1.738281 -0.390625 -1.898438 -0.453125 -2.109375 L -0.453125 -2.125 C -0.523438 -2.363281 -0.503906 -2.570312 -0.390625 -2.75 C -0.273438 -2.925781 -0.078125 -3.050781 0.203125 -3.125 C 0.347656 -3.164062 0.488281 -3.191406 0.625 -3.203125 C 0.757812 -3.222656 0.878906 -3.21875 0.984375 -3.1875 L 1 -2.65625 C 0.90625 -2.675781 0.804688 -2.6875 0.703125 -2.6875 C 0.597656 -2.6875 0.492188 -2.671875 0.390625 -2.640625 C 0.265625 -2.609375 0.175781 -2.554688 0.125 -2.484375 C 0.0820312 -2.421875 0.0703125 -2.347656 0.09375 -2.265625 L 0.09375 -2.25 C 0.125 -2.175781 0.175781 -2.117188 0.25 -2.078125 C 0.332031 -2.046875 0.457031 -2.007812 0.625 -1.96875 C 0.820312 -1.9375 0.984375 -1.894531 1.109375 -1.84375 C 1.234375 -1.800781 1.335938 -1.726562 1.421875 -1.625 C 1.503906 -1.53125 1.566406 -1.414062 1.609375 -1.28125 L 1.609375 -1.265625 C 1.691406 -1.003906 1.664062 -0.785156 1.53125 -0.609375 C 1.40625 -0.429688 1.207031 -0.300781 0.9375 -0.21875 Z M 0.9375 -0.21875 "/></g></g></g><g fill="#039834" fill-opacity="1"><g transform="translate(28.454871, 35.239839)"><g/></g></g><g fill="#039834" fill-opacity="1"><g transform="translate(29.038799, 35.039348)"><g><path d="M 0.6875 -0.328125 L 0.15625 -0.078125 L -1.109375 -2.703125 L 0.34375 -3.390625 L 0.59375 -2.890625 L -0.328125 -2.453125 L -0.078125 -1.90625 L 0.734375 -2.296875 L 0.96875 -1.8125 L 0.15625 -1.421875 Z M 0.6875 -0.328125 "/></g></g></g><g fill="#039834" fill-opacity="1"><g transform="translate(30.803575, 34.162238)"><g><path d="M 0.453125 -0.21875 C 0.378906 -0.164062 0.296875 -0.144531 0.203125 -0.15625 C 0.117188 -0.175781 0.0546875 -0.226562 0.015625 -0.3125 C -0.0234375 -0.382812 -0.03125 -0.457031 0 -0.53125 C 0.0195312 -0.601562 0.0664062 -0.664062 0.140625 -0.71875 C 0.234375 -0.769531 0.316406 -0.785156 0.390625 -0.765625 C 0.472656 -0.753906 0.535156 -0.710938 0.578125 -0.640625 C 0.617188 -0.554688 0.628906 -0.472656 0.609375 -0.390625 C 0.585938 -0.316406 0.535156 -0.257812 0.453125 -0.21875 Z M 0.453125 -0.21875 "/></g></g></g><g fill="#039834" fill-opacity="1"><g transform="translate(31.763894, 33.608946)"><g><path d="M 1.03125 -0.71875 C 0.84375 -0.582031 0.65625 -0.5 0.46875 -0.46875 C 0.289062 -0.4375 0.113281 -0.460938 -0.0625 -0.546875 C -0.25 -0.628906 -0.414062 -0.765625 -0.5625 -0.953125 L -0.984375 -1.515625 C -1.128906 -1.703125 -1.210938 -1.894531 -1.234375 -2.09375 C -1.265625 -2.289062 -1.238281 -2.476562 -1.15625 -2.65625 C -1.082031 -2.832031 -0.957031 -2.984375 -0.78125 -3.109375 C -0.664062 -3.203125 -0.550781 -3.269531 -0.4375 -3.3125 C -0.320312 -3.351562 -0.203125 -3.390625 -0.078125 -3.421875 L 0.109375 -2.921875 C 0.00390625 -2.910156 -0.0859375 -2.882812 -0.171875 -2.84375 C -0.265625 -2.800781 -0.34375 -2.757812 -0.40625 -2.71875 C -0.550781 -2.601562 -0.628906 -2.46875 -0.640625 -2.3125 C -0.660156 -2.164062 -0.613281 -2.015625 -0.5 -1.859375 L -0.09375 -1.328125 C 0.0078125 -1.179688 0.132812 -1.09375 0.28125 -1.0625 C 0.4375 -1.039062 0.585938 -1.085938 0.734375 -1.203125 C 0.804688 -1.253906 0.875 -1.3125 0.9375 -1.375 C 1 -1.445312 1.046875 -1.53125 1.078125 -1.625 L 1.515625 -1.296875 C 1.460938 -1.191406 1.394531 -1.09375 1.3125 -1 C 1.238281 -0.90625 1.144531 -0.8125 1.03125 -0.71875 Z M 1.03125 -0.71875 "/></g></g></g><g fill="#039834" fill-opacity="1"><g transform="translate(33.505799, 32.254483)"><g><path d="M 0.390625 -0.3125 C 0.328125 -0.25 0.253906 -0.210938 0.171875 -0.203125 C 0.0859375 -0.191406 0.015625 -0.222656 -0.046875 -0.296875 C -0.0976562 -0.359375 -0.117188 -0.429688 -0.109375 -0.515625 C -0.0976562 -0.597656 -0.0625 -0.671875 0 -0.734375 C 0.0820312 -0.804688 0.160156 -0.84375 0.234375 -0.84375 C 0.316406 -0.84375 0.382812 -0.8125 0.4375 -0.75 C 0.5 -0.675781 0.523438 -0.597656 0.515625 -0.515625 C 0.503906 -0.441406 0.460938 -0.375 0.390625 -0.3125 Z M 0.390625 -0.3125 "/></g></g></g><g fill="#039834" fill-opacity="1"><g transform="translate(15.163053, 7.951086)"><g><path d="M 0.875 -1.890625 L 1.921875 -1.078125 L 1.390625 -0.78125 L 0.4375 -1.515625 L 0.125 -1.34375 L 0.671875 -0.375 L 0.15625 -0.078125 L -1.265625 -2.609375 L -0.421875 -3.09375 C -0.210938 -3.207031 -0.0351562 -3.265625 0.109375 -3.265625 C 0.253906 -3.273438 0.382812 -3.238281 0.5 -3.15625 C 0.613281 -3.070312 0.710938 -2.960938 0.796875 -2.828125 L 0.859375 -2.71875 C 0.929688 -2.570312 0.96875 -2.429688 0.96875 -2.296875 C 0.976562 -2.160156 0.945312 -2.023438 0.875 -1.890625 Z M -0.171875 -2.59375 L -0.484375 -2.421875 L -0.09375 -1.71875 L 0.21875 -1.890625 C 0.320312 -1.953125 0.390625 -2.019531 0.421875 -2.09375 C 0.453125 -2.164062 0.4375 -2.253906 0.375 -2.359375 L 0.296875 -2.5 C 0.234375 -2.613281 0.160156 -2.671875 0.078125 -2.671875 C 0.00390625 -2.679688 -0.078125 -2.65625 -0.171875 -2.59375 Z M -0.171875 -2.59375 "/></g></g></g><g fill="#039834" fill-opacity="1"><g transform="translate(17.033101, 6.928791)"><g><path d="M 0.703125 -0.296875 L 0.15625 -0.0625 L -0.984375 -2.734375 L -0.4375 -2.96875 Z M 0.703125 -0.296875 "/></g></g></g><g fill="#039834" fill-opacity="1"><g transform="translate(17.780881, 6.557396)"><g><path d="M 1.3125 -1.203125 L 0.6875 -3.234375 L 1.25 -3.40625 L 2.09375 -0.625 L 1.34375 -0.40625 L 0.109375 -2.28125 L 0.734375 -0.21875 L 0.171875 -0.046875 L -0.671875 -2.828125 L 0.078125 -3.0625 Z M 1.3125 -1.203125 "/></g></g></g><g fill="#039834" fill-opacity="1"><g transform="translate(19.90465, 5.916889)"><g><path d="M 1.234375 -0.125 C 1.003906 -0.09375 0.800781 -0.109375 0.625 -0.171875 C 0.457031 -0.242188 0.3125 -0.359375 0.1875 -0.515625 C 0.0703125 -0.671875 0 -0.863281 -0.03125 -1.09375 L -0.125 -1.796875 C -0.15625 -2.035156 -0.132812 -2.242188 -0.0625 -2.421875 C 0 -2.609375 0.109375 -2.757812 0.265625 -2.875 C 0.421875 -2.988281 0.609375 -3.0625 0.828125 -3.09375 C 0.972656 -3.113281 1.109375 -3.113281 1.234375 -3.09375 C 1.359375 -3.082031 1.476562 -3.0625 1.59375 -3.03125 L 1.515625 -2.5 C 1.410156 -2.539062 1.3125 -2.566406 1.21875 -2.578125 C 1.132812 -2.585938 1.050781 -2.585938 0.96875 -2.578125 C 0.78125 -2.546875 0.644531 -2.46875 0.5625 -2.34375 C 0.476562 -2.21875 0.445312 -2.054688 0.46875 -1.859375 L 0.5625 -1.1875 C 0.59375 -1.007812 0.660156 -0.875 0.765625 -0.78125 C 0.878906 -0.695312 1.03125 -0.671875 1.21875 -0.703125 C 1.3125 -0.710938 1.398438 -0.726562 1.484375 -0.75 C 1.578125 -0.78125 1.660156 -0.828125 1.734375 -0.890625 L 1.96875 -0.40625 C 1.875 -0.332031 1.765625 -0.269531 1.640625 -0.21875 C 1.515625 -0.175781 1.378906 -0.144531 1.234375 -0.125 Z M 1.234375 -0.125 "/></g></g></g><g fill="#039834" fill-opacity="1"><g transform="translate(21.847945, 5.617945)"><g><path d="M 1.25 0.078125 C 1.019531 0.0664062 0.820312 0.0078125 0.65625 -0.09375 C 0.488281 -0.195312 0.359375 -0.332031 0.265625 -0.5 C 0.179688 -0.675781 0.140625 -0.878906 0.140625 -1.109375 L 0.15625 -1.796875 C 0.164062 -2.035156 0.21875 -2.238281 0.3125 -2.40625 C 0.40625 -2.582031 0.535156 -2.710938 0.703125 -2.796875 C 0.878906 -2.890625 1.082031 -2.929688 1.3125 -2.921875 C 1.539062 -2.921875 1.734375 -2.867188 1.890625 -2.765625 C 2.054688 -2.660156 2.1875 -2.519531 2.28125 -2.34375 C 2.375 -2.175781 2.414062 -1.976562 2.40625 -1.75 L 2.390625 -1.0625 C 2.390625 -0.820312 2.335938 -0.613281 2.234375 -0.4375 C 2.140625 -0.269531 2.007812 -0.140625 1.84375 -0.046875 C 1.675781 0.0351562 1.476562 0.078125 1.25 0.078125 Z M 1.265625 -0.484375 C 1.421875 -0.484375 1.546875 -0.535156 1.640625 -0.640625 C 1.742188 -0.742188 1.796875 -0.878906 1.796875 -1.046875 L 1.8125 -1.796875 C 1.820312 -1.972656 1.773438 -2.113281 1.671875 -2.21875 C 1.578125 -2.320312 1.453125 -2.375 1.296875 -2.375 C 1.140625 -2.382812 1.007812 -2.335938 0.90625 -2.234375 C 0.8125 -2.128906 0.757812 -1.988281 0.75 -1.8125 L 0.734375 -1.0625 C 0.734375 -0.882812 0.78125 -0.742188 0.875 -0.640625 C 0.976562 -0.546875 1.109375 -0.492188 1.265625 -0.484375 Z M 1.265625 -0.484375 "/></g></g></g><g fill="#039834" fill-opacity="1"><g transform="translate(24.190851, 5.655153)"><g><path d="M 1.703125 -0.46875 L 2.09375 -2.5625 L 2.6875 -2.453125 L 2.15625 0.40625 L 1.375 0.265625 L 1.140625 -1.984375 L 0.75 0.140625 L 0.171875 0.03125 L 0.703125 -2.828125 L 1.484375 -2.6875 Z M 1.703125 -0.46875 "/></g></g></g><g fill="#039834" fill-opacity="1"><g transform="translate(26.408837, 6.112442)"><g/></g></g><g fill="#039834" fill-opacity="1"><g transform="translate(26.854741, 6.194011)"><g><path d="M 0.953125 0.390625 L 0.15625 0.0625 L 1.234375 -2.640625 L 2.015625 -2.328125 C 2.390625 -2.171875 2.628906 -1.96875 2.734375 -1.71875 C 2.835938 -1.46875 2.820312 -1.175781 2.6875 -0.84375 L 2.453125 -0.265625 C 2.304688 0.0976562 2.109375 0.332031 1.859375 0.4375 C 1.617188 0.550781 1.316406 0.535156 0.953125 0.390625 Z M 1.578125 -1.90625 L 0.90625 -0.21875 L 1.140625 -0.125 C 1.316406 -0.0507812 1.46875 -0.0390625 1.59375 -0.09375 C 1.71875 -0.144531 1.816406 -0.269531 1.890625 -0.46875 L 2.140625 -1.078125 C 2.210938 -1.253906 2.21875 -1.398438 2.15625 -1.515625 C 2.101562 -1.640625 1.988281 -1.738281 1.8125 -1.8125 Z M 1.578125 -1.90625 "/></g></g></g><g fill="#039834" fill-opacity="1"><g transform="translate(28.858889, 7.004433)"><g><path d="M 1.546875 0.890625 L 0.15625 0.09375 L 1.609375 -2.421875 L 2.984375 -1.625 L 2.71875 -1.15625 L 1.84375 -1.65625 L 1.53125 -1.125 L 2.296875 -0.6875 L 2.03125 -0.21875 L 1.265625 -0.65625 L 0.9375 -0.078125 L 1.828125 0.421875 Z M 1.546875 0.890625 "/></g></g></g><g clip-path="url(#4ccb301210)"><g clip-path="url(#db68eab048)"><path fill="#b88917" d="M 10.089844 6.769531 L 35.546875 6.769531 L 35.546875 32.230469 L 10.089844 32.230469 Z M 10.089844 6.769531 " fill-opacity="1" fill-rule="nonzero"/></g></g><g clip-path="url(#474b47cd4d)"><path fill="#ffffff" d="M 35.09375 19.496094 C 35.09375 26.253906 29.613281 31.730469 22.859375 31.730469 C 16.101562 31.730469 10.625 26.253906 10.625 19.496094 C 10.625 12.742188 16.101562 7.265625 22.859375 7.265625 C 29.613281 7.265625 35.09375 12.742188 35.09375 19.496094 " fill-opacity="1" fill-rule="nonzero"/><path fill="#b88917" d="M 35.09375 19.496094 L 35.007812 19.496094 C 35.007812 22.851562 33.648438 25.890625 31.449219 28.089844 C 29.25 30.285156 26.214844 31.644531 22.859375 31.644531 C 19.503906 31.644531 16.46875 30.285156 14.269531 28.089844 C 12.070312 25.890625 10.710938 22.851562 10.710938 19.496094 C 10.710938 16.144531 12.070312 13.105469 14.269531 10.90625 C 16.46875 8.710938 19.503906 7.351562 22.859375 7.347656 C 26.214844 7.351562 29.25 8.710938 31.449219 10.90625 C 33.648438 13.105469 35.007812 16.144531 35.007812 19.496094 L 35.175781 19.496094 C 35.175781 12.695312 29.660156 7.179688 22.859375 7.179688 C 16.054688 7.179688 10.539062 12.695312 10.539062 19.496094 C 10.539062 26.300781 16.054688 31.816406 22.859375 31.816406 C 29.660156 31.816406 35.175781 26.300781 35.175781 19.496094 L 35.09375 19.496094 " fill-opacity="1" fill-rule="nonzero"/></g><g clip-path="url(#b03e4666e2)"><path fill="#b88917" d="M 21.132812 10.921875 L 24.585938 10.921875 L 25.273438 7.503906 C 24.492188 7.347656 23.683594 7.265625 22.859375 7.265625 C 22.03125 7.265625 21.222656 7.347656 20.445312 7.503906 L 21.132812 10.921875 " fill-opacity="1" fill-rule="nonzero"/></g><g clip-path="url(#29cb390d40)"><path fill="#b88917" d="M 24.585938 28.074219 L 21.132812 28.074219 L 20.445312 31.492188 C 21.222656 31.648438 22.03125 31.730469 22.859375 31.730469 C 23.683594 31.730469 24.492188 31.648438 25.273438 31.492188 L 24.585938 28.074219 " fill-opacity="1" fill-rule="nonzero"/></g><g clip-path="url(#eb47d6dbf8)"><path fill="#b88917" d="M 14.28125 21.222656 L 14.28125 17.773438 L 10.863281 17.082031 C 10.707031 17.863281 10.625 18.671875 10.625 19.496094 C 10.625 20.324219 10.707031 21.132812 10.863281 21.914062 L 14.28125 21.222656 " fill-opacity="1" fill-rule="nonzero"/></g><g clip-path="url(#cfe00f4671)"><path fill="#b88917" d="M 31.433594 17.773438 L 31.433594 21.222656 L 34.851562 21.914062 C 35.007812 21.132812 35.09375 20.324219 35.09375 19.496094 C 35.09375 18.671875 35.007812 17.863281 34.851562 17.082031 L 31.433594 17.773438 " fill-opacity="1" fill-rule="nonzero"/></g><path fill="#b88917" d="M 12.671875 12.726562 L 15.574219 14.65625 L 18.015625 12.214844 L 16.085938 9.308594 C 14.734375 10.210938 13.570312 11.375 12.671875 12.726562 " fill-opacity="1" fill-rule="nonzero"/><path fill="#b88917" d="M 33.046875 26.269531 L 30.144531 24.339844 L 27.703125 26.78125 L 29.632812 29.683594 C 30.984375 28.785156 32.144531 27.621094 33.046875 26.269531 " fill-opacity="1" fill-rule="nonzero"/><path fill="#b88917" d="M 12.671875 26.269531 C 13.570312 27.621094 14.734375 28.785156 16.085938 29.683594 L 18.015625 26.78125 L 15.574219 24.339844 L 12.671875 26.269531 " fill-opacity="1" fill-rule="nonzero"/><path fill="#b88917" d="M 29.632812 9.308594 L 27.703125 12.214844 L 30.144531 14.65625 L 33.046875 12.726562 C 32.144531 11.375 30.984375 10.210938 29.632812 9.308594 " fill-opacity="1" fill-rule="nonzero"/><path fill="#ffffff" d="M 31.40625 19.496094 C 31.40625 24.21875 27.578125 28.046875 22.859375 28.046875 C 18.136719 28.046875 14.3125 24.21875 14.3125 19.496094 C 14.3125 14.777344 18.136719 10.949219 22.859375 10.949219 C 27.578125 10.949219 31.40625 14.777344 31.40625 19.496094 " fill-opacity="1" fill-rule="nonzero"/><path fill="#b88917" d="M 31.40625 19.496094 L 31.226562 19.496094 C 31.226562 21.808594 30.289062 23.898438 28.773438 25.414062 C 27.261719 26.929688 25.167969 27.863281 22.859375 27.863281 C 20.546875 27.863281 18.457031 26.929688 16.941406 25.414062 C 15.429688 23.898438 14.492188 21.808594 14.492188 19.496094 C 14.492188 17.1875 15.429688 15.097656 16.941406 13.582031 C 18.457031 12.066406 20.546875 11.132812 22.859375 11.132812 C 25.167969 11.132812 27.261719 12.066406 28.773438 13.582031 C 30.289062 15.097656 31.226562 17.1875 31.226562 19.496094 L 31.585938 19.496094 C 31.585938 14.675781 27.679688 10.769531 22.859375 10.769531 C 18.039062 10.769531 14.128906 14.675781 14.128906 19.496094 C 14.128906 24.320312 18.039062 28.226562 22.859375 28.226562 C 27.679688 28.226562 31.585938 24.320312 31.585938 19.496094 L 31.40625 19.496094 " fill-opacity="1" fill-rule="nonzero"/><path fill="#ffffff" d="M 30.394531 19.496094 C 30.394531 23.660156 27.019531 27.035156 22.859375 27.035156 C 18.695312 27.035156 15.320312 23.660156 15.320312 19.496094 C 15.320312 15.335938 18.695312 11.960938 22.859375 11.960938 C 27.019531 11.960938 30.394531 15.335938 30.394531 19.496094 " fill-opacity="1" fill-rule="nonzero"/><path fill="#b88917" d="M 30.394531 19.496094 L 30.34375 19.496094 C 30.34375 21.566406 29.507812 23.4375 28.152344 24.792969 C 26.796875 26.144531 24.925781 26.984375 22.859375 26.984375 C 20.789062 26.984375 18.921875 26.144531 17.566406 24.792969 C 16.210938 23.4375 15.371094 21.566406 15.371094 19.496094 C 15.371094 17.429688 16.210938 15.558594 17.566406 14.203125 C 18.921875 12.847656 20.789062 12.011719 22.859375 12.011719 C 24.925781 12.011719 26.796875 12.847656 28.152344 14.203125 C 29.507812 15.558594 30.34375 17.429688 30.34375 19.496094 L 30.445312 19.496094 C 30.445312 15.308594 27.050781 11.910156 22.859375 11.910156 C 18.667969 11.910156 15.269531 15.308594 15.269531 19.496094 C 15.269531 23.6875 18.667969 27.085938 22.859375 27.085938 C 27.050781 27.085938 30.445312 23.6875 30.445312 19.496094 L 30.394531 19.496094 " fill-opacity="1" fill-rule="nonzero"/><g clip-path="url(#9b620e9767)"><g clip-path="url(#fee9941fe5)"><path fill="#ffffff" d="M 14.855469 11.277344 L 30.804688 11.277344 L 30.804688 27.105469 L 14.855469 27.105469 Z M 14.855469 11.277344 " fill-opacity="1" fill-rule="nonzero"/></g></g><g clip-path="url(#cd0d46feb8)"><path fill="#039834" d="M 27.871094 19.292969 C 27.375 18.898438 26.144531 18.777344 25.027344 18.753906 C 26.089844 18.609375 27.207031 18.363281 27.628906 17.9375 C 28.203125 17.363281 28.160156 16.464844 27.535156 15.9375 C 27.113281 15.578125 26.535156 15.480469 26.027344 15.632812 C 26.144531 15.152344 25.988281 14.628906 25.566406 14.273438 C 24.941406 13.742188 23.96875 13.78125 23.398438 14.359375 C 22.949219 14.8125 22.789062 15.957031 22.738281 16.992188 C 22.683594 15.957031 22.527344 14.8125 22.078125 14.359375 C 21.503906 13.78125 20.535156 13.742188 19.90625 14.273438 C 19.488281 14.628906 19.332031 15.152344 19.449219 15.632812 C 18.941406 15.480469 18.363281 15.578125 17.941406 15.9375 C 17.316406 16.464844 17.273438 17.363281 17.847656 17.9375 C 18.273438 18.367188 19.402344 18.613281 20.46875 18.757812 C 19.386719 18.785156 18.230469 18.910156 17.75 19.292969 C 17.113281 19.808594 17.042969 20.703125 17.601562 21.292969 C 17.972656 21.691406 18.539062 21.851562 19.058594 21.753906 C 18.882812 22.21875 18.976562 22.753906 19.351562 23.152344 C 19.90625 23.742188 20.875 23.804688 21.515625 23.292969 C 22.007812 22.898438 22.300781 21.824219 22.480469 20.820312 C 22.460938 21.300781 22.46875 21.785156 22.53125 22.269531 C 22.601562 22.78125 22.726562 23.296875 22.945312 23.789062 C 23.160156 24.28125 23.46875 24.746094 23.867188 25.144531 L 23.871094 25.148438 C 23.875 25.148438 23.878906 25.152344 23.882812 25.15625 C 24.039062 25.300781 24.609375 24.773438 24.453125 24.628906 C 24.105469 24.3125 23.828125 23.933594 23.621094 23.519531 C 23.414062 23.101562 23.277344 22.652344 23.195312 22.183594 C 23.109375 21.71875 23.078125 21.238281 23.082031 20.757812 C 23.085938 20.675781 23.085938 20.59375 23.089844 20.515625 C 23.261719 21.59375 23.566406 22.859375 24.105469 23.292969 C 24.746094 23.804688 25.71875 23.742188 26.273438 23.152344 C 26.648438 22.753906 26.738281 22.21875 26.5625 21.753906 C 27.085938 21.851562 27.648438 21.691406 28.023438 21.292969 C 28.578125 20.703125 28.511719 19.808594 27.871094 19.292969 Z M 27.871094 19.292969 " fill-opacity="1" fill-rule="nonzero"/></g><g fill="#039834" fill-opacity="1"><g transform="translate(6.013797, 20.695796)"><g><path d="M 0.734375 -0.484375 L 1.671875 -0.484375 L 1.671875 0 L 0.125 0 L 0.125 -0.46875 C 0.257812 -0.582031 0.382812 -0.695312 0.5 -0.8125 C 0.625 -0.9375 0.734375 -1.050781 0.828125 -1.15625 C 0.929688 -1.269531 1.007812 -1.378906 1.0625 -1.484375 C 1.113281 -1.597656 1.140625 -1.703125 1.140625 -1.796875 L 1.140625 -1.8125 C 1.140625 -1.925781 1.109375 -2.007812 1.046875 -2.0625 C 0.984375 -2.113281 0.894531 -2.140625 0.78125 -2.140625 C 0.707031 -2.140625 0.617188 -2.128906 0.515625 -2.109375 C 0.421875 -2.085938 0.335938 -2.054688 0.265625 -2.015625 L 0.125 -2.484375 C 0.238281 -2.523438 0.359375 -2.554688 0.484375 -2.578125 C 0.609375 -2.609375 0.738281 -2.625 0.875 -2.625 C 1.125 -2.625 1.316406 -2.566406 1.453125 -2.453125 C 1.597656 -2.335938 1.671875 -2.160156 1.671875 -1.921875 L 1.671875 -1.90625 C 1.671875 -1.65625 1.585938 -1.410156 1.421875 -1.171875 C 1.253906 -0.941406 1.023438 -0.710938 0.734375 -0.484375 Z M 0.734375 -0.484375 "/></g></g></g><g fill="#039834" fill-opacity="1"><g transform="translate(7.875107, 20.695796)"><g><path d="M 1.015625 0.03125 C 0.734375 0.03125 0.507812 -0.0507812 0.34375 -0.21875 C 0.1875 -0.394531 0.109375 -0.648438 0.109375 -0.984375 L 0.109375 -1.609375 C 0.109375 -1.953125 0.191406 -2.207031 0.359375 -2.375 C 0.523438 -2.539062 0.742188 -2.625 1.015625 -2.625 C 1.296875 -2.625 1.515625 -2.535156 1.671875 -2.359375 C 1.835938 -2.191406 1.921875 -1.941406 1.921875 -1.609375 L 1.921875 -0.984375 C 1.921875 -0.640625 1.835938 -0.382812 1.671875 -0.21875 C 1.503906 -0.0507812 1.285156 0.03125 1.015625 0.03125 Z M 1.015625 -0.453125 C 1.265625 -0.453125 1.390625 -0.617188 1.390625 -0.953125 L 1.390625 -1.625 C 1.390625 -1.789062 1.351562 -1.914062 1.28125 -2 C 1.21875 -2.09375 1.128906 -2.140625 1.015625 -2.140625 C 0.890625 -2.140625 0.796875 -2.09375 0.734375 -2 C 0.671875 -1.914062 0.640625 -1.789062 0.640625 -1.625 L 0.640625 -0.953125 C 0.640625 -0.617188 0.765625 -0.453125 1.015625 -0.453125 Z M 1.015625 -0.453125 "/></g></g></g><g clip-path="url(#6138f24384)"><g clip-path="url(#3c7099116b)"><path fill="#026924" d="M 3.898438 0.535156 L 41.828125 0.535156 L 41.828125 38.464844 L 3.898438 38.464844 Z M 3.898438 0.535156 " fill-opacity="1" fill-rule="nonzero"/></g></g><g clip-path="url(#daaea87969)"><g clip-path="url(#6946fe7e62)"><path fill="#eeba2b" d="M 7.273438 18.734375 L 8.800781 18.734375 L 8.800781 20.265625 L 7.273438 20.265625 Z M 7.273438 18.734375 " fill-opacity="1" fill-rule="nonzero"/></g></g><g fill="#ffffff" fill-opacity="1"><g transform="translate(12.58981, 9.742841)"><g><path d="M -0.015625 -0.3125 C 0.0351562 -0.34375 0.0664062 -0.378906 0.078125 -0.421875 C 0.0976562 -0.460938 0.101562 -0.503906 0.09375 -0.546875 C 0.09375 -0.585938 0.0625 -0.648438 0 -0.734375 L -0.90625 -1.84375 C -1 -1.945312 -1.070312 -2.035156 -1.125 -2.109375 L -1.34375 -1.9375 L -1.515625 -2.15625 L -0.6875 -2.8125 C -0.425781 -3.039062 -0.179688 -3.164062 0.046875 -3.1875 C 0.273438 -3.21875 0.472656 -3.125 0.640625 -2.90625 C 0.753906 -2.769531 0.804688 -2.613281 0.796875 -2.4375 C 0.785156 -2.269531 0.71875 -2.09375 0.59375 -1.90625 L 0.609375 -1.890625 C 0.640625 -1.921875 0.6875 -1.929688 0.75 -1.921875 C 0.820312 -1.921875 0.882812 -1.910156 0.9375 -1.890625 L 1.25 -1.78125 C 1.40625 -1.738281 1.519531 -1.710938 1.59375 -1.703125 C 1.664062 -1.703125 1.734375 -1.726562 1.796875 -1.78125 L 1.953125 -1.59375 L 1.484375 -1.203125 C 1.429688 -1.191406 1.367188 -1.195312 1.296875 -1.21875 C 1.222656 -1.238281 1.132812 -1.269531 1.03125 -1.3125 L 0.546875 -1.46875 C 0.429688 -1.5 0.34375 -1.519531 0.28125 -1.53125 L 0.140625 -1.40625 L 0.390625 -1.109375 C 0.484375 -0.992188 0.550781 -0.90625 0.59375 -0.84375 C 0.65625 -0.894531 0.734375 -0.957031 0.828125 -1.03125 L 1 -0.8125 L 0.140625 -0.125 Z M 0.09375 -1.734375 C 0.257812 -1.867188 0.347656 -2 0.359375 -2.125 C 0.378906 -2.257812 0.328125 -2.398438 0.203125 -2.546875 C 0.0664062 -2.710938 -0.0625 -2.785156 -0.1875 -2.765625 C -0.320312 -2.753906 -0.4375 -2.707031 -0.53125 -2.625 C -0.59375 -2.570312 -0.625 -2.515625 -0.625 -2.453125 C -0.632812 -2.398438 -0.601562 -2.328125 -0.53125 -2.234375 L -0.046875 -1.640625 C 0.015625 -1.679688 0.0625 -1.710938 0.09375 -1.734375 Z M 0.09375 -1.734375 "/></g></g></g><g fill="#ffffff" fill-opacity="1"><g transform="translate(14.749858, 8.057404)"><g><path d="M 0.03125 -0.3125 C 0.0820312 -0.34375 0.117188 -0.375 0.140625 -0.40625 C 0.171875 -0.4375 0.179688 -0.472656 0.171875 -0.515625 C 0.171875 -0.566406 0.144531 -0.640625 0.09375 -0.734375 L -0.640625 -1.96875 C -0.703125 -2.082031 -0.75 -2.175781 -0.78125 -2.25 L -1.03125 -2.109375 L -1.171875 -2.359375 L -0.234375 -2.90625 L -0.109375 -2.6875 C -0.171875 -2.65625 -0.210938 -2.625 -0.234375 -2.59375 C -0.253906 -2.5625 -0.265625 -2.519531 -0.265625 -2.46875 C -0.265625 -2.425781 -0.238281 -2.363281 -0.1875 -2.28125 L 0.546875 -1.046875 C 0.617188 -0.921875 0.671875 -0.816406 0.703125 -0.734375 C 0.773438 -0.773438 0.859375 -0.820312 0.953125 -0.875 L 1.09375 -0.640625 L 0.15625 -0.09375 Z M 0.03125 -0.3125 "/></g></g></g><g fill="#ffffff" fill-opacity="1"><g transform="translate(16.116007, 7.197981)"><g><path d="M 0.375 -1.75 C 0.28125 -1.800781 0.179688 -1.863281 0.078125 -1.9375 L 0.0625 -1.9375 L 0.515625 -0.84375 C 0.554688 -0.71875 0.585938 -0.617188 0.609375 -0.546875 C 0.679688 -0.578125 0.765625 -0.613281 0.859375 -0.65625 L 0.96875 -0.390625 L 0.171875 -0.0625 L 0.078125 -0.296875 C 0.148438 -0.328125 0.195312 -0.351562 0.21875 -0.375 C 0.238281 -0.40625 0.25 -0.441406 0.25 -0.484375 C 0.257812 -0.535156 0.242188 -0.609375 0.203125 -0.703125 L -0.3125 -2.046875 C -0.375 -2.203125 -0.410156 -2.304688 -0.421875 -2.359375 L -0.6875 -2.25 L -0.78125 -2.5 L -0.234375 -2.71875 L 1.359375 -1.796875 C 1.503906 -1.710938 1.625 -1.632812 1.71875 -1.5625 L 1.734375 -1.5625 L 1.296875 -2.671875 C 1.234375 -2.816406 1.191406 -2.921875 1.171875 -2.984375 L 0.921875 -2.890625 L 0.828125 -3.140625 L 1.625 -3.453125 L 1.703125 -3.21875 C 1.640625 -3.195312 1.59375 -3.171875 1.5625 -3.140625 C 1.539062 -3.117188 1.523438 -3.082031 1.515625 -3.03125 C 1.515625 -2.988281 1.535156 -2.921875 1.578125 -2.828125 L 2.34375 -0.890625 L 2.046875 -0.765625 Z M 0.375 -1.75 "/></g></g></g><g fill="#ffffff" fill-opacity="1"><g transform="translate(18.928553, 6.120393)"><g><path d="M 1.421875 -0.1875 C 1.160156 -0.144531 0.925781 -0.164062 0.71875 -0.25 C 0.507812 -0.332031 0.332031 -0.460938 0.1875 -0.640625 C 0.0390625 -0.816406 -0.0546875 -1.03125 -0.109375 -1.28125 C -0.148438 -1.5 -0.132812 -1.726562 -0.0625 -1.96875 C 0 -2.207031 0.113281 -2.410156 0.28125 -2.578125 C 0.445312 -2.742188 0.664062 -2.851562 0.9375 -2.90625 C 1.03125 -2.914062 1.132812 -2.914062 1.25 -2.90625 C 1.375 -2.894531 1.492188 -2.867188 1.609375 -2.828125 L 1.578125 -2.984375 L 1.859375 -3.03125 L 2.015625 -2.171875 L 1.78125 -2.125 C 1.625 -2.519531 1.375 -2.691406 1.03125 -2.640625 C 0.863281 -2.609375 0.734375 -2.535156 0.640625 -2.421875 C 0.546875 -2.304688 0.484375 -2.160156 0.453125 -1.984375 C 0.421875 -1.804688 0.425781 -1.628906 0.46875 -1.453125 C 0.5 -1.242188 0.5625 -1.0625 0.65625 -0.90625 C 0.75 -0.75 0.863281 -0.640625 1 -0.578125 C 1.132812 -0.515625 1.273438 -0.492188 1.421875 -0.515625 C 1.585938 -0.546875 1.738281 -0.609375 1.875 -0.703125 C 2.007812 -0.804688 2.117188 -0.941406 2.203125 -1.109375 L 2.40625 -0.984375 C 2.289062 -0.734375 2.140625 -0.546875 1.953125 -0.421875 C 1.773438 -0.304688 1.597656 -0.226562 1.421875 -0.1875 Z M 1.421875 -0.1875 "/></g></g></g><g fill="#ffffff" fill-opacity="1"><g transform="translate(21.580778, 5.63325)"><g><path d="M 1.4375 0.078125 C 1.132812 0.078125 0.882812 0.0078125 0.6875 -0.125 C 0.5 -0.269531 0.359375 -0.441406 0.265625 -0.640625 C 0.179688 -0.847656 0.140625 -1.070312 0.140625 -1.3125 C 0.140625 -1.53125 0.191406 -1.742188 0.296875 -1.953125 C 0.410156 -2.171875 0.566406 -2.34375 0.765625 -2.46875 C 0.960938 -2.601562 1.203125 -2.671875 1.484375 -2.671875 C 1.765625 -2.660156 2.003906 -2.585938 2.203125 -2.453125 C 2.398438 -2.316406 2.539062 -2.140625 2.625 -1.921875 C 2.71875 -1.710938 2.765625 -1.5 2.765625 -1.28125 C 2.765625 -1.0625 2.710938 -0.847656 2.609375 -0.640625 C 2.503906 -0.429688 2.351562 -0.253906 2.15625 -0.109375 C 1.957031 0.0234375 1.71875 0.0859375 1.4375 0.078125 Z M 1.46875 -0.203125 C 1.632812 -0.203125 1.769531 -0.25 1.875 -0.34375 C 1.976562 -0.4375 2.050781 -0.5625 2.09375 -0.71875 C 2.144531 -0.882812 2.171875 -1.050781 2.171875 -1.21875 C 2.179688 -1.570312 2.125 -1.851562 2 -2.0625 C 1.875 -2.269531 1.691406 -2.378906 1.453125 -2.390625 C 1.285156 -2.390625 1.148438 -2.335938 1.046875 -2.234375 C 0.941406 -2.128906 0.863281 -1.992188 0.8125 -1.828125 C 0.757812 -1.671875 0.734375 -1.507812 0.734375 -1.34375 C 0.734375 -1.164062 0.753906 -0.988281 0.796875 -0.8125 C 0.847656 -0.632812 0.929688 -0.488281 1.046875 -0.375 C 1.160156 -0.257812 1.300781 -0.203125 1.46875 -0.203125 Z M 1.203125 -2.984375 L 1.625 -3.421875 C 1.644531 -3.453125 1.671875 -3.472656 1.703125 -3.484375 C 1.742188 -3.503906 1.785156 -3.507812 1.828125 -3.5 C 1.890625 -3.5 1.941406 -3.472656 1.984375 -3.421875 C 2.003906 -3.378906 2.015625 -3.335938 2.015625 -3.296875 C 2.015625 -3.253906 2 -3.210938 1.96875 -3.171875 C 1.945312 -3.128906 1.914062 -3.09375 1.875 -3.0625 L 1.328125 -2.796875 Z M 1.203125 -2.984375 "/></g></g></g><g fill="#ffffff" fill-opacity="1"><g transform="translate(24.567589, 5.683402)"><g><path d="M 1.296875 -1.25 C 1.242188 -1.34375 1.195312 -1.445312 1.15625 -1.5625 L 1.140625 -1.5625 L 0.890625 -0.421875 C 0.867188 -0.285156 0.84375 -0.179688 0.8125 -0.109375 C 0.894531 -0.0976562 0.984375 -0.0820312 1.078125 -0.0625 L 1.015625 0.21875 L 0.1875 0.046875 L 0.234375 -0.203125 C 0.304688 -0.191406 0.359375 -0.191406 0.390625 -0.203125 C 0.421875 -0.210938 0.453125 -0.234375 0.484375 -0.265625 C 0.515625 -0.296875 0.539062 -0.363281 0.5625 -0.46875 L 0.875 -1.875 C 0.90625 -2.039062 0.929688 -2.144531 0.953125 -2.1875 L 0.6875 -2.234375 L 0.75 -2.515625 L 1.3125 -2.390625 L 2.125 -0.71875 C 2.195312 -0.570312 2.253906 -0.445312 2.296875 -0.34375 L 2.3125 -0.34375 L 2.578125 -1.5 C 2.609375 -1.65625 2.628906 -1.757812 2.640625 -1.8125 L 2.359375 -1.875 L 2.421875 -2.15625 L 3.265625 -1.96875 L 3.21875 -1.71875 C 3.15625 -1.726562 3.101562 -1.726562 3.0625 -1.71875 C 3.019531 -1.71875 2.984375 -1.695312 2.953125 -1.65625 C 2.921875 -1.625 2.894531 -1.554688 2.875 -1.453125 L 2.4375 0.578125 L 2.140625 0.5 Z M 1.296875 -1.25 "/></g></g></g><g fill="#ffffff" fill-opacity="1"><g transform="translate(27.546904, 6.424805)"><g/></g></g><g fill="#ffffff" fill-opacity="1"><g transform="translate(28.658933, 6.788285)"><g><path d="M 0.296875 -0.125 C 0.347656 -0.09375 0.390625 -0.078125 0.421875 -0.078125 C 0.460938 -0.078125 0.5 -0.0859375 0.53125 -0.109375 C 0.570312 -0.140625 0.617188 -0.195312 0.671875 -0.28125 L 1.359375 -1.546875 C 1.429688 -1.660156 1.492188 -1.75 1.546875 -1.8125 L 1.3125 -1.953125 L 1.4375 -2.203125 L 2.390625 -1.671875 C 2.660156 -1.523438 2.859375 -1.34375 2.984375 -1.125 C 3.117188 -0.914062 3.1875 -0.703125 3.1875 -0.484375 C 3.1875 -0.265625 3.132812 -0.0546875 3.03125 0.140625 C 2.914062 0.328125 2.765625 0.484375 2.578125 0.609375 C 2.390625 0.742188 2.164062 0.816406 1.90625 0.828125 C 1.65625 0.835938 1.390625 0.765625 1.109375 0.609375 L 0.171875 0.09375 Z M 1.3125 0.40625 C 1.457031 0.476562 1.601562 0.503906 1.75 0.484375 C 1.894531 0.460938 2.03125 0.398438 2.15625 0.296875 C 2.28125 0.203125 2.382812 0.078125 2.46875 -0.078125 C 2.65625 -0.398438 2.722656 -0.679688 2.671875 -0.921875 C 2.617188 -1.160156 2.46875 -1.347656 2.21875 -1.484375 C 2.144531 -1.523438 2.082031 -1.535156 2.03125 -1.515625 C 1.988281 -1.492188 1.9375 -1.429688 1.875 -1.328125 L 1.171875 -0.046875 C 1.109375 0.0664062 1.050781 0.15625 1 0.21875 C 1.007812 0.226562 1.03125 0.238281 1.0625 0.25 L 1.203125 0.34375 C 1.234375 0.351562 1.269531 0.375 1.3125 0.40625 Z M 1.3125 0.40625 "/></g></g></g><g fill="#ffffff" fill-opacity="1"><g transform="translate(31.241525, 8.254455)"><g><path d="M 0.296875 -0.0625 C 0.347656 -0.03125 0.390625 -0.0078125 0.421875 0 C 0.460938 0.0078125 0.503906 0.00390625 0.546875 -0.015625 C 0.585938 -0.0351562 0.644531 -0.0859375 0.71875 -0.171875 L 1.625 -1.28125 C 1.707031 -1.382812 1.78125 -1.460938 1.84375 -1.515625 L 1.625 -1.6875 L 1.8125 -1.90625 L 3.265625 -0.71875 L 2.8125 -0.125 L 2.625 -0.28125 C 2.738281 -0.425781 2.785156 -0.554688 2.765625 -0.671875 C 2.742188 -0.785156 2.6875 -0.875 2.59375 -0.9375 L 2.484375 -1.03125 C 2.429688 -1.070312 2.382812 -1.097656 2.34375 -1.109375 C 2.3125 -1.117188 2.269531 -1.109375 2.21875 -1.078125 C 2.175781 -1.054688 2.125 -1.007812 2.0625 -0.9375 L 1.703125 -0.5 L 2.046875 -0.21875 C 2.078125 -0.25 2.144531 -0.335938 2.25 -0.484375 L 2.46875 -0.3125 L 1.890625 0.375 L 1.71875 0.234375 C 1.78125 0.160156 1.8125 0.09375 1.8125 0.03125 C 1.820312 -0.0195312 1.804688 -0.0664062 1.765625 -0.109375 C 1.734375 -0.148438 1.6875 -0.195312 1.625 -0.25 L 1.546875 -0.3125 L 1.15625 0.171875 C 1.070312 0.273438 1 0.351562 0.9375 0.40625 L 1.3125 0.71875 C 1.414062 0.800781 1.53125 0.835938 1.65625 0.828125 C 1.78125 0.816406 1.90625 0.738281 2.03125 0.59375 L 2.21875 0.75 L 1.671875 1.375 L 0.140625 0.125 Z M 0.296875 -0.0625 "/></g></g></g><g fill="#ffffff" fill-opacity="1"><g transform="translate(12.811729, 31.981093)"><g><path d="M 0.171875 -0.171875 C 0.210938 -0.140625 0.265625 -0.128906 0.328125 -0.140625 C 0.390625 -0.148438 0.445312 -0.160156 0.5 -0.171875 C 0.550781 -0.191406 0.628906 -0.234375 0.734375 -0.296875 L 2.53125 -1.390625 L 2.734375 -1.21875 L 2.078125 0.859375 C 2.054688 0.898438 2.03125 0.957031 2 1.03125 C 1.976562 1.101562 1.953125 1.15625 1.921875 1.1875 C 1.984375 1.238281 2.039062 1.285156 2.09375 1.328125 L 1.921875 1.546875 L 1.140625 0.921875 L 1.296875 0.734375 C 1.390625 0.804688 1.46875 0.804688 1.53125 0.734375 C 1.5625 0.691406 1.585938 0.632812 1.609375 0.5625 L 1.671875 0.34375 L 1.046875 -0.140625 L 0.890625 -0.046875 C 0.878906 -0.0351562 0.835938 -0.0078125 0.765625 0.03125 C 0.703125 0.0703125 0.644531 0.101562 0.59375 0.125 C 0.664062 0.164062 0.738281 0.21875 0.8125 0.28125 L 0.625 0.515625 L 0.015625 0.015625 Z M 1.78125 0.09375 L 1.921875 -0.375 C 2.003906 -0.582031 2.078125 -0.742188 2.140625 -0.859375 C 1.992188 -0.742188 1.851562 -0.644531 1.71875 -0.5625 L 1.28125 -0.296875 Z M 1.78125 0.09375 "/></g></g></g><g fill="#ffffff" fill-opacity="1"><g transform="translate(15.077834, 33.750506)"><g><path d="M 0.28125 -0.125 C 0.332031 -0.101562 0.378906 -0.0859375 0.421875 -0.078125 C 0.460938 -0.078125 0.503906 -0.09375 0.546875 -0.125 C 0.585938 -0.15625 0.628906 -0.210938 0.671875 -0.296875 L 1.328125 -1.5625 C 1.390625 -1.6875 1.445312 -1.78125 1.5 -1.84375 L 1.25 -1.953125 L 1.390625 -2.21875 L 2.3125 -1.734375 C 2.613281 -1.578125 2.8125 -1.394531 2.90625 -1.1875 C 3.007812 -0.976562 3 -0.753906 2.875 -0.515625 C 2.8125 -0.378906 2.71875 -0.273438 2.59375 -0.203125 C 2.46875 -0.128906 2.3125 -0.09375 2.125 -0.09375 C 1.9375 -0.101562 1.742188 -0.15625 1.546875 -0.25 L 1.421875 -0.3125 L 1.3125 -0.375 L 1.15625 -0.09375 C 1.09375 0.03125 1.035156 0.128906 0.984375 0.203125 C 1.054688 0.242188 1.15625 0.296875 1.28125 0.359375 L 1.15625 0.609375 L 0.171875 0.09375 Z M 1.59375 -0.53125 C 1.757812 -0.4375 1.90625 -0.410156 2.03125 -0.453125 C 2.164062 -0.503906 2.273438 -0.613281 2.359375 -0.78125 C 2.535156 -1.101562 2.476562 -1.34375 2.1875 -1.5 C 2.113281 -1.539062 2.046875 -1.554688 1.984375 -1.546875 C 1.929688 -1.535156 1.878906 -1.476562 1.828125 -1.375 L 1.4375 -0.625 C 1.476562 -0.582031 1.53125 -0.550781 1.59375 -0.53125 Z M 1.59375 -0.53125 "/></g></g></g><g fill="#ffffff" fill-opacity="1"><g transform="translate(17.556847, 35.027925)"><g><path d="M 1.375 0.453125 C 0.988281 0.347656 0.742188 0.171875 0.640625 -0.078125 C 0.546875 -0.328125 0.546875 -0.617188 0.640625 -0.953125 L 0.890625 -1.828125 C 0.921875 -1.960938 0.953125 -2.0625 0.984375 -2.125 L 0.71875 -2.1875 L 0.796875 -2.484375 L 1.8125 -2.203125 L 1.75 -1.953125 C 1.6875 -1.972656 1.632812 -1.976562 1.59375 -1.96875 C 1.5625 -1.957031 1.53125 -1.929688 1.5 -1.890625 C 1.476562 -1.859375 1.453125 -1.796875 1.421875 -1.703125 L 1.15625 -0.734375 C 1.007812 -0.210938 1.132812 0.101562 1.53125 0.21875 C 1.71875 0.257812 1.878906 0.226562 2.015625 0.125 C 2.160156 0.0195312 2.269531 -0.15625 2.34375 -0.40625 L 2.609375 -1.34375 C 2.648438 -1.507812 2.679688 -1.613281 2.703125 -1.65625 L 2.4375 -1.703125 L 2.515625 -2 L 3.328125 -1.78125 L 3.265625 -1.53125 C 3.210938 -1.539062 3.164062 -1.539062 3.125 -1.53125 C 3.082031 -1.53125 3.046875 -1.507812 3.015625 -1.46875 C 2.984375 -1.4375 2.953125 -1.375 2.921875 -1.28125 L 2.671875 -0.390625 C 2.566406 -0.00390625 2.394531 0.25 2.15625 0.375 C 1.925781 0.507812 1.664062 0.535156 1.375 0.453125 Z M 1.375 0.453125 "/></g></g></g><g fill="#ffffff" fill-opacity="1"><g transform="translate(20.684435, 35.837945)"><g><path d="M 0.203125 -0.234375 C 0.265625 -0.234375 0.3125 -0.238281 0.34375 -0.25 C 0.382812 -0.257812 0.414062 -0.285156 0.4375 -0.328125 C 0.46875 -0.367188 0.484375 -0.4375 0.484375 -0.53125 L 0.59375 -1.96875 C 0.601562 -2.101562 0.613281 -2.210938 0.625 -2.296875 L 0.34375 -2.296875 L 0.359375 -2.59375 L 2.21875 -2.46875 L 2.1875 -1.734375 L 1.953125 -1.75 C 1.960938 -1.9375 1.925781 -2.066406 1.84375 -2.140625 C 1.757812 -2.222656 1.65625 -2.265625 1.53125 -2.265625 L 1.390625 -2.28125 C 1.335938 -2.28125 1.289062 -2.269531 1.25 -2.25 C 1.21875 -2.238281 1.1875 -2.210938 1.15625 -2.171875 C 1.132812 -2.128906 1.125 -2.0625 1.125 -1.96875 L 1.078125 -1.40625 L 1.515625 -1.375 C 1.523438 -1.425781 1.53125 -1.535156 1.53125 -1.703125 L 1.828125 -1.6875 L 1.765625 -0.78125 L 1.515625 -0.796875 C 1.523438 -0.898438 1.515625 -0.972656 1.484375 -1.015625 C 1.453125 -1.066406 1.410156 -1.101562 1.359375 -1.125 C 1.304688 -1.144531 1.238281 -1.148438 1.15625 -1.140625 L 1.0625 -1.15625 L 1.03125 -0.546875 C 1.019531 -0.410156 1.003906 -0.300781 0.984375 -0.21875 L 1.484375 -0.1875 C 1.609375 -0.175781 1.71875 -0.210938 1.8125 -0.296875 C 1.90625 -0.378906 1.960938 -0.507812 1.984375 -0.6875 L 2.234375 -0.671875 L 2.15625 0.140625 L 0.1875 0.015625 Z M 0.203125 -0.234375 "/></g></g></g><g fill="#ffffff" fill-opacity="1"><g transform="translate(23.375047, 35.983038)"><g><path d="M 1.140625 -0.0625 C 1.035156 -0.0507812 0.925781 -0.0546875 0.8125 -0.078125 C 0.695312 -0.0976562 0.585938 -0.132812 0.484375 -0.1875 L 0.5 -0.03125 L 0.21875 0 L 0.125 -0.875 L 0.375 -0.890625 C 0.425781 -0.691406 0.519531 -0.546875 0.65625 -0.453125 C 0.800781 -0.359375 0.960938 -0.316406 1.140625 -0.328125 C 1.253906 -0.347656 1.347656 -0.394531 1.421875 -0.46875 C 1.492188 -0.550781 1.523438 -0.644531 1.515625 -0.75 C 1.503906 -0.820312 1.46875 -0.882812 1.40625 -0.9375 C 1.351562 -0.988281 1.289062 -1.023438 1.21875 -1.046875 C 1.144531 -1.066406 1.03125 -1.097656 0.875 -1.140625 C 0.59375 -1.210938 0.367188 -1.304688 0.203125 -1.421875 C 0.046875 -1.546875 -0.0390625 -1.722656 -0.0625 -1.953125 C -0.0820312 -2.066406 -0.0664062 -2.179688 -0.015625 -2.296875 C 0.0234375 -2.410156 0.109375 -2.507812 0.234375 -2.59375 C 0.359375 -2.675781 0.523438 -2.734375 0.734375 -2.765625 C 0.828125 -2.773438 0.929688 -2.769531 1.046875 -2.75 C 1.171875 -2.726562 1.273438 -2.695312 1.359375 -2.65625 L 1.328125 -2.8125 L 1.625 -2.84375 L 1.71875 -1.96875 L 1.46875 -1.9375 C 1.414062 -2.144531 1.328125 -2.296875 1.203125 -2.390625 C 1.078125 -2.484375 0.929688 -2.519531 0.765625 -2.5 C 0.660156 -2.488281 0.570312 -2.445312 0.5 -2.375 C 0.425781 -2.3125 0.394531 -2.234375 0.40625 -2.140625 C 0.414062 -2.023438 0.472656 -1.9375 0.578125 -1.875 C 0.679688 -1.8125 0.84375 -1.742188 1.0625 -1.671875 C 1.320312 -1.609375 1.535156 -1.519531 1.703125 -1.40625 C 1.878906 -1.300781 1.976562 -1.140625 2 -0.921875 C 2.019531 -0.773438 1.992188 -0.640625 1.921875 -0.515625 C 1.859375 -0.398438 1.753906 -0.300781 1.609375 -0.21875 C 1.472656 -0.132812 1.316406 -0.0820312 1.140625 -0.0625 Z M 1.140625 -0.0625 "/></g></g></g><g fill="#ffffff" fill-opacity="1"><g transform="translate(25.958938, 35.657946)"><g><path d="M 0.5625 -0.4375 C 0.625 -0.457031 0.664062 -0.476562 0.6875 -0.5 C 0.71875 -0.53125 0.738281 -0.566406 0.75 -0.609375 C 0.757812 -0.660156 0.75 -0.726562 0.71875 -0.8125 L 0.1875 -2.515625 L 0.03125 -2.46875 C -0.113281 -2.414062 -0.207031 -2.332031 -0.25 -2.21875 C -0.289062 -2.113281 -0.285156 -1.96875 -0.234375 -1.78125 L -0.46875 -1.703125 L -0.703125 -2.5 L 1.4375 -3.171875 L 1.71875 -2.390625 L 1.484375 -2.3125 C 1.429688 -2.5 1.347656 -2.625 1.234375 -2.6875 C 1.128906 -2.757812 1.007812 -2.78125 0.875 -2.75 L 0.703125 -2.6875 L 1.21875 -1.015625 C 1.269531 -0.859375 1.300781 -0.753906 1.3125 -0.703125 C 1.382812 -0.722656 1.476562 -0.75 1.59375 -0.78125 L 1.671875 -0.515625 L 0.640625 -0.203125 Z M 0.5625 -0.4375 "/></g></g></g><g fill="#ffffff" fill-opacity="1"><g transform="translate(28.632215, 34.78826)"><g><path d="M -0.109375 -0.21875 C -0.0546875 -0.25 -0.0195312 -0.289062 0 -0.34375 C 0.0195312 -0.40625 0.03125 -0.46875 0.03125 -0.53125 C 0.03125 -0.59375 0.0195312 -0.675781 0 -0.78125 L -0.328125 -2.859375 L -0.09375 -3 L 1.578125 -1.59375 C 1.617188 -1.550781 1.664062 -1.503906 1.71875 -1.453125 C 1.769531 -1.398438 1.804688 -1.359375 1.828125 -1.328125 C 1.898438 -1.367188 1.96875 -1.40625 2.03125 -1.4375 L 2.171875 -1.1875 L 1.296875 -0.703125 L 1.171875 -0.921875 C 1.265625 -0.972656 1.289062 -1.039062 1.25 -1.125 C 1.226562 -1.164062 1.1875 -1.210938 1.125 -1.265625 L 0.96875 -1.421875 L 0.265625 -1.015625 L 0.3125 -0.84375 C 0.3125 -0.820312 0.3125 -0.769531 0.3125 -0.6875 C 0.320312 -0.613281 0.332031 -0.554688 0.34375 -0.515625 C 0.414062 -0.566406 0.492188 -0.613281 0.578125 -0.65625 L 0.71875 -0.390625 L 0.015625 0 Z M 0.765625 -1.609375 L 0.390625 -1.921875 C 0.234375 -2.066406 0.109375 -2.191406 0.015625 -2.296875 C 0.0664062 -2.128906 0.101562 -1.96875 0.125 -1.8125 L 0.21875 -1.3125 Z M 0.765625 -1.609375 "/></g></g></g><g fill="#ffffff" fill-opacity="1"><g transform="translate(31.12575, 33.374922)"><g><path d="M 0.921875 -0.671875 C 0.847656 -0.609375 0.753906 -0.550781 0.640625 -0.5 C 0.535156 -0.457031 0.425781 -0.425781 0.3125 -0.40625 L 0.40625 -0.28125 L 0.1875 -0.109375 L -0.359375 -0.796875 L -0.171875 -0.953125 C -0.0234375 -0.804688 0.128906 -0.726562 0.296875 -0.71875 C 0.472656 -0.71875 0.628906 -0.773438 0.765625 -0.890625 C 0.859375 -0.972656 0.914062 -1.066406 0.9375 -1.171875 C 0.957031 -1.273438 0.9375 -1.367188 0.875 -1.453125 C 0.832031 -1.503906 0.769531 -1.535156 0.6875 -1.546875 C 0.613281 -1.554688 0.539062 -1.550781 0.46875 -1.53125 C 0.394531 -1.507812 0.273438 -1.476562 0.109375 -1.4375 C -0.171875 -1.34375 -0.40625 -1.300781 -0.59375 -1.3125 C -0.789062 -1.332031 -0.960938 -1.429688 -1.109375 -1.609375 C -1.179688 -1.691406 -1.234375 -1.789062 -1.265625 -1.90625 C -1.296875 -2.03125 -1.28125 -2.160156 -1.21875 -2.296875 C -1.15625 -2.429688 -1.046875 -2.566406 -0.890625 -2.703125 C -0.804688 -2.765625 -0.707031 -2.820312 -0.59375 -2.875 C -0.488281 -2.9375 -0.390625 -2.96875 -0.296875 -2.96875 L -0.40625 -3.09375 L -0.171875 -3.28125 L 0.375 -2.59375 L 0.171875 -2.4375 C 0.0234375 -2.582031 -0.117188 -2.65625 -0.265625 -2.65625 C -0.421875 -2.664062 -0.566406 -2.617188 -0.703125 -2.515625 C -0.785156 -2.441406 -0.835938 -2.359375 -0.859375 -2.265625 C -0.890625 -2.171875 -0.875 -2.085938 -0.8125 -2.015625 C -0.738281 -1.921875 -0.644531 -1.875 -0.53125 -1.875 C -0.414062 -1.875 -0.242188 -1.910156 -0.015625 -1.984375 C 0.234375 -2.078125 0.460938 -2.117188 0.671875 -2.109375 C 0.878906 -2.109375 1.050781 -2.023438 1.1875 -1.859375 C 1.28125 -1.742188 1.332031 -1.617188 1.34375 -1.484375 C 1.351562 -1.347656 1.320312 -1.207031 1.25 -1.0625 C 1.175781 -0.925781 1.066406 -0.796875 0.921875 -0.671875 Z M 0.921875 -0.671875 "/></g></g></g><g clip-path="url(#27cc65ff3d)"><path fill="#ffffff" d="M 35.046875 19.496094 C 35.046875 26.253906 29.570312 31.730469 22.8125 31.730469 C 16.058594 31.730469 10.582031 26.253906 10.582031 19.496094 C 10.582031 12.742188 16.058594 7.265625 22.8125 7.265625 C 29.570312 7.265625 35.046875 12.742188 35.046875 19.496094 " fill-opacity="1" fill-rule="nonzero"/><path fill="#eeba2b" d="M 35.046875 19.496094 L 34.960938 19.496094 C 34.960938 22.851562 33.601562 25.890625 31.402344 28.089844 C 29.207031 30.285156 26.167969 31.644531 22.8125 31.644531 C 19.460938 31.644531 16.421875 30.285156 14.222656 28.089844 C 12.023438 25.890625 10.664062 22.851562 10.664062 19.496094 C 10.664062 16.144531 12.023438 13.105469 14.222656 10.90625 C 16.421875 8.710938 19.460938 7.351562 22.8125 7.347656 C 26.167969 7.351562 29.207031 8.710938 31.402344 10.90625 C 33.601562 13.105469 34.960938 16.144531 34.960938 19.496094 L 35.132812 19.496094 C 35.132812 12.695312 29.617188 7.179688 22.8125 7.179688 C 16.011719 7.179688 10.496094 12.695312 10.496094 19.496094 C 10.496094 26.300781 16.011719 31.816406 22.8125 31.816406 C 29.617188 31.816406 35.132812 26.300781 35.132812 19.496094 L 35.046875 19.496094 " fill-opacity="1" fill-rule="nonzero"/></g><g clip-path="url(#3104dd9cc7)"><path fill="#eeba2b" d="M 21.085938 10.921875 L 24.539062 10.921875 L 25.230469 7.503906 C 24.449219 7.347656 23.640625 7.265625 22.8125 7.265625 C 21.988281 7.265625 21.179688 7.347656 20.398438 7.503906 L 21.085938 10.921875 " fill-opacity="1" fill-rule="nonzero"/></g><g clip-path="url(#e8d623902c)"><path fill="#eeba2b" d="M 24.539062 28.074219 L 21.085938 28.074219 L 20.398438 31.492188 C 21.179688 31.648438 21.988281 31.730469 22.8125 31.730469 C 23.640625 31.730469 24.449219 31.648438 25.230469 31.492188 L 24.539062 28.074219 " fill-opacity="1" fill-rule="nonzero"/></g><g clip-path="url(#52aa123940)"><path fill="#eeba2b" d="M 14.238281 21.222656 L 14.238281 17.773438 L 10.820312 17.082031 C 10.664062 17.863281 10.582031 18.671875 10.582031 19.496094 C 10.582031 20.324219 10.664062 21.132812 10.820312 21.914062 L 14.238281 21.222656 " fill-opacity="1" fill-rule="nonzero"/></g><g clip-path="url(#7df3e0181c)"><path fill="#eeba2b" d="M 31.390625 17.773438 L 31.390625 21.222656 L 34.808594 21.914062 C 34.964844 21.132812 35.046875 20.324219 35.046875 19.496094 C 35.046875 18.671875 34.964844 17.863281 34.808594 17.082031 L 31.390625 17.773438 " fill-opacity="1" fill-rule="nonzero"/></g><path fill="#eeba2b" d="M 12.625 12.726562 L 15.53125 14.65625 L 17.96875 12.214844 L 16.042969 9.308594 C 14.691406 10.210938 13.527344 11.375 12.625 12.726562 " fill-opacity="1" fill-rule="nonzero"/><path fill="#eeba2b" d="M 33 26.269531 L 30.097656 24.339844 L 27.65625 26.78125 L 29.585938 29.683594 C 30.9375 28.785156 32.101562 27.621094 33 26.269531 " fill-opacity="1" fill-rule="nonzero"/><path fill="#eeba2b" d="M 12.625 26.269531 C 13.527344 27.621094 14.691406 28.785156 16.042969 29.683594 L 17.96875 26.78125 L 15.53125 24.339844 L 12.625 26.269531 " fill-opacity="1" fill-rule="nonzero"/><path fill="#eeba2b" d="M 29.585938 9.308594 L 27.65625 12.214844 L 30.097656 14.65625 L 33 12.726562 C 32.101562 11.375 30.9375 10.210938 29.585938 9.308594 " fill-opacity="1" fill-rule="nonzero"/><path fill="#ffffff" d="M 31.363281 19.496094 C 31.363281 24.21875 27.535156 28.046875 22.8125 28.046875 C 18.09375 28.046875 14.265625 24.21875 14.265625 19.496094 C 14.265625 14.777344 18.09375 10.949219 22.8125 10.949219 C 27.535156 10.949219 31.363281 14.777344 31.363281 19.496094 " fill-opacity="1" fill-rule="nonzero"/><path fill="#eeba2b" d="M 31.363281 19.496094 L 31.179688 19.496094 C 31.179688 21.808594 30.246094 23.898438 28.730469 25.414062 C 27.214844 26.929688 25.125 27.863281 22.8125 27.863281 C 20.503906 27.863281 18.414062 26.929688 16.898438 25.414062 C 15.382812 23.898438 14.449219 21.808594 14.449219 19.496094 C 14.449219 17.1875 15.382812 15.097656 16.898438 13.582031 C 18.414062 12.066406 20.503906 11.132812 22.8125 11.132812 C 25.125 11.132812 27.214844 12.066406 28.730469 13.582031 C 30.246094 15.097656 31.179688 17.1875 31.179688 19.496094 L 31.542969 19.496094 C 31.542969 14.675781 27.636719 10.769531 22.8125 10.769531 C 17.992188 10.769531 14.085938 14.675781 14.085938 19.496094 C 14.085938 24.320312 17.992188 28.226562 22.8125 28.226562 C 27.636719 28.226562 31.542969 24.320312 31.542969 19.496094 L 31.363281 19.496094 " fill-opacity="1" fill-rule="nonzero"/><path fill="#ffffff" d="M 30.351562 19.496094 C 30.351562 23.660156 26.976562 27.035156 22.8125 27.035156 C 18.652344 27.035156 15.277344 23.660156 15.277344 19.496094 C 15.277344 15.335938 18.652344 11.960938 22.8125 11.960938 C 26.976562 11.960938 30.351562 15.335938 30.351562 19.496094 " fill-opacity="1" fill-rule="nonzero"/><path fill="#eeba2b" d="M 30.351562 19.496094 L 30.300781 19.496094 C 30.300781 21.566406 29.460938 23.4375 28.109375 24.792969 C 26.753906 26.144531 24.882812 26.984375 22.8125 26.984375 C 20.746094 26.984375 18.875 26.144531 17.519531 24.792969 C 16.167969 23.4375 15.328125 21.566406 15.328125 19.496094 C 15.328125 17.429688 16.167969 15.558594 17.519531 14.203125 C 18.875 12.847656 20.746094 12.011719 22.8125 12.011719 C 24.882812 12.011719 26.753906 12.847656 28.109375 14.203125 C 29.460938 15.558594 30.300781 17.429688 30.300781 19.496094 L 30.402344 19.496094 C 30.402344 15.308594 27.003906 11.910156 22.8125 11.910156 C 18.621094 11.910156 15.226562 15.308594 15.226562 19.496094 C 15.226562 23.6875 18.621094 27.085938 22.8125 27.085938 C 27.003906 27.085938 30.402344 23.6875 30.402344 19.496094 L 30.351562 19.496094 " fill-opacity="1" fill-rule="nonzero"/><g clip-path="url(#cee8ebfdff)"><path fill="#026924" d="M 27.84375 19.679688 C 27.355469 19.253906 26.144531 19.125 25.039062 19.101562 C 26.089844 18.945312 27.1875 18.683594 27.605469 18.230469 C 28.171875 17.613281 28.128906 16.652344 27.511719 16.089844 C 27.097656 15.707031 26.527344 15.601562 26.027344 15.761719 C 26.140625 15.25 25.988281 14.691406 25.574219 14.308594 C 24.957031 13.742188 23.996094 13.785156 23.433594 14.402344 C 22.988281 14.886719 22.832031 16.109375 22.78125 17.214844 C 22.730469 16.109375 22.574219 14.886719 22.128906 14.402344 C 21.566406 13.785156 20.605469 13.742188 19.988281 14.308594 C 19.574219 14.691406 19.417969 15.25 19.535156 15.761719 C 19.035156 15.601562 18.464844 15.707031 18.046875 16.089844 C 17.429688 16.652344 17.390625 17.613281 17.957031 18.230469 C 18.375 18.6875 19.488281 18.949219 20.542969 19.101562 C 19.476562 19.136719 18.332031 19.269531 17.863281 19.679688 C 17.230469 20.226562 17.164062 21.183594 17.710938 21.816406 C 18.082031 22.242188 18.636719 22.410156 19.152344 22.308594 C 18.980469 22.804688 19.070312 23.378906 19.4375 23.804688 C 19.988281 24.4375 20.945312 24.503906 21.574219 23.953125 C 22.058594 23.535156 22.351562 22.382812 22.527344 21.308594 C 22.507812 21.824219 22.515625 22.34375 22.578125 22.863281 C 22.644531 23.410156 22.769531 23.957031 22.984375 24.484375 C 23.199219 25.007812 23.503906 25.507812 23.894531 25.933594 L 23.898438 25.9375 C 23.902344 25.941406 23.90625 25.945312 23.910156 25.945312 C 24.066406 26.101562 24.628906 25.535156 24.472656 25.382812 C 24.132812 25.042969 23.855469 24.640625 23.652344 24.195312 C 23.449219 23.75 23.3125 23.265625 23.230469 22.769531 C 23.148438 22.269531 23.117188 21.757812 23.121094 21.242188 C 23.121094 21.15625 23.125 21.070312 23.128906 20.984375 C 23.300781 22.136719 23.597656 23.488281 24.132812 23.953125 C 24.761719 24.503906 25.71875 24.4375 26.269531 23.804688 C 26.640625 23.378906 26.730469 22.804688 26.554688 22.308594 C 27.070312 22.410156 27.625 22.242188 27.996094 21.816406 C 28.542969 21.183594 28.476562 20.226562 27.84375 19.679688 Z M 27.84375 19.679688 " fill-opacity="1" fill-rule="nonzero"/></g><g fill="#026924" fill-opacity="1"><g transform="translate(47.949022, 14.999999)"><g><path d="M 0.5625 -0.734375 C 0.757812 -0.742188 0.910156 -0.769531 1.015625 -0.8125 C 1.117188 -0.851562 1.203125 -0.941406 1.265625 -1.078125 C 1.328125 -1.210938 1.359375 -1.425781 1.359375 -1.71875 L 1.359375 -6.015625 C 1.359375 -6.429688 1.375 -6.765625 1.40625 -7.015625 L 0.5625 -6.984375 L 0.5625 -7.859375 L 3.75 -7.875 C 4.769531 -7.882812 5.554688 -7.703125 6.109375 -7.328125 C 6.671875 -6.960938 6.953125 -6.367188 6.953125 -5.546875 C 6.953125 -5.035156 6.785156 -4.578125 6.453125 -4.171875 C 6.117188 -3.773438 5.628906 -3.484375 4.984375 -3.296875 L 4.984375 -3.28125 C 5.117188 -3.226562 5.253906 -3.132812 5.390625 -3 C 5.535156 -2.875 5.65625 -2.734375 5.75 -2.578125 L 6.28125 -1.796875 C 6.53125 -1.398438 6.738281 -1.125 6.90625 -0.96875 C 7.082031 -0.820312 7.289062 -0.742188 7.53125 -0.734375 L 7.53125 0 L 5.6875 0 C 5.5625 -0.09375 5.429688 -0.222656 5.296875 -0.390625 C 5.171875 -0.554688 5.03125 -0.773438 4.875 -1.046875 L 4.03125 -2.40625 C 3.851562 -2.695312 3.695312 -2.910156 3.5625 -3.046875 L 2.984375 -3.046875 L 2.984375 -1.84375 C 2.984375 -1.425781 2.96875 -1.085938 2.9375 -0.828125 C 3.175781 -0.847656 3.492188 -0.859375 3.890625 -0.859375 L 3.890625 0 L 0.5625 0 Z M 3.515625 -3.859375 C 4.128906 -3.859375 4.570312 -3.992188 4.84375 -4.265625 C 5.125 -4.535156 5.265625 -4.960938 5.265625 -5.546875 C 5.265625 -6.171875 5.101562 -6.582031 4.78125 -6.78125 C 4.46875 -6.988281 4.117188 -7.09375 3.734375 -7.09375 C 3.472656 -7.09375 3.28125 -7.035156 3.15625 -6.921875 C 3.039062 -6.804688 2.984375 -6.566406 2.984375 -6.203125 L 2.984375 -3.90625 C 3.210938 -3.875 3.390625 -3.859375 3.515625 -3.859375 Z M 3.515625 -3.859375 "/></g></g></g><g fill="#026924" fill-opacity="1"><g transform="translate(56.722166, 14.999999)"><g><path d="M 0.5625 -0.734375 C 0.757812 -0.742188 0.910156 -0.769531 1.015625 -0.8125 C 1.117188 -0.851562 1.203125 -0.941406 1.265625 -1.078125 C 1.328125 -1.210938 1.359375 -1.425781 1.359375 -1.71875 L 1.359375 -6.015625 C 1.359375 -6.429688 1.375 -6.765625 1.40625 -7.015625 L 0.5625 -6.984375 L 0.5625 -7.859375 L 3.78125 -7.859375 L 3.78125 -7.109375 C 3.582031 -7.097656 3.425781 -7.070312 3.3125 -7.03125 C 3.207031 -7 3.125 -6.914062 3.0625 -6.78125 C 3.007812 -6.644531 2.984375 -6.429688 2.984375 -6.140625 L 2.984375 -1.84375 C 2.984375 -1.425781 2.96875 -1.085938 2.9375 -0.828125 C 3.175781 -0.847656 3.457031 -0.859375 3.78125 -0.859375 L 3.78125 0 L 0.5625 0 Z M 0.5625 -0.734375 "/></g></g></g><g fill="#026924" fill-opacity="1"><g transform="translate(62.1456, 14.999999)"><g><path d="M 2.9375 -4.46875 C 2.75 -4.707031 2.546875 -4.988281 2.328125 -5.3125 L 2.3125 -5.3125 L 2.328125 -1.84375 C 2.328125 -1.425781 2.3125 -1.085938 2.28125 -0.828125 C 2.519531 -0.847656 2.800781 -0.859375 3.125 -0.859375 L 3.125 0 L 0.578125 0 L 0.578125 -0.734375 C 0.773438 -0.742188 0.925781 -0.769531 1.03125 -0.8125 C 1.132812 -0.851562 1.21875 -0.941406 1.28125 -1.078125 C 1.34375 -1.210938 1.375 -1.425781 1.375 -1.71875 L 1.34375 -6.015625 C 1.34375 -6.515625 1.359375 -6.847656 1.390625 -7.015625 L 0.53125 -6.984375 L 0.53125 -7.859375 L 2.296875 -7.859375 L 5.734375 -3.515625 C 6.046875 -3.109375 6.304688 -2.753906 6.515625 -2.453125 L 6.53125 -2.453125 L 6.53125 -6.015625 C 6.53125 -6.503906 6.539062 -6.835938 6.5625 -7.015625 L 5.71875 -6.984375 L 5.71875 -7.859375 L 8.28125 -7.859375 L 8.28125 -7.109375 C 8.070312 -7.097656 7.914062 -7.070312 7.8125 -7.03125 C 7.707031 -7 7.625 -6.914062 7.5625 -6.78125 C 7.507812 -6.644531 7.484375 -6.429688 7.484375 -6.140625 L 7.484375 0.109375 L 6.53125 0.109375 Z M 2.9375 -4.46875 "/></g></g></g><g fill="#026924" fill-opacity="1"><g transform="translate(71.893414, 14.999999)"><g><path d="M 4.234375 0.171875 C 3.484375 0.171875 2.816406 0 2.234375 -0.34375 C 1.648438 -0.695312 1.195312 -1.175781 0.875 -1.78125 C 0.550781 -2.394531 0.390625 -3.070312 0.390625 -3.8125 C 0.390625 -4.519531 0.539062 -5.195312 0.84375 -5.84375 C 1.144531 -6.5 1.59375 -7.023438 2.1875 -7.421875 C 2.78125 -7.828125 3.488281 -8.03125 4.3125 -8.03125 C 4.613281 -8.03125 4.9375 -7.976562 5.28125 -7.875 C 5.632812 -7.78125 5.957031 -7.648438 6.25 -7.484375 L 6.265625 -7.484375 L 6.21875 -7.953125 L 7.078125 -7.953125 L 7.078125 -5.34375 L 6.34375 -5.34375 C 6.144531 -6.582031 5.519531 -7.207031 4.46875 -7.21875 C 3.96875 -7.21875 3.539062 -7.070312 3.1875 -6.78125 C 2.84375 -6.488281 2.582031 -6.097656 2.40625 -5.609375 C 2.238281 -5.117188 2.15625 -4.59375 2.15625 -4.03125 C 2.15625 -3.394531 2.25 -2.828125 2.4375 -2.328125 C 2.625 -1.828125 2.890625 -1.4375 3.234375 -1.15625 C 3.585938 -0.875 4.015625 -0.734375 4.515625 -0.734375 C 4.992188 -0.734375 5.460938 -0.851562 5.921875 -1.09375 C 6.378906 -1.34375 6.765625 -1.679688 7.078125 -2.109375 L 7.625 -1.609375 C 7.125 -0.929688 6.578125 -0.460938 5.984375 -0.203125 C 5.398438 0.046875 4.816406 0.171875 4.234375 0.171875 Z M 4.234375 0.171875 "/></g></g></g><g fill="#026924" fill-opacity="1"><g transform="translate(80.688965, 14.999999)"><g><path d="M 4.296875 0.171875 C 3.398438 0.171875 2.660156 -0.0234375 2.078125 -0.421875 C 1.492188 -0.816406 1.066406 -1.320312 0.796875 -1.9375 C 0.523438 -2.5625 0.390625 -3.222656 0.390625 -3.921875 C 0.390625 -4.585938 0.539062 -5.234375 0.84375 -5.859375 C 1.144531 -6.492188 1.59375 -7.015625 2.1875 -7.421875 C 2.78125 -7.828125 3.492188 -8.03125 4.328125 -8.03125 C 5.191406 -8.03125 5.914062 -7.828125 6.5 -7.421875 C 7.082031 -7.015625 7.515625 -6.492188 7.796875 -5.859375 C 8.085938 -5.234375 8.234375 -4.585938 8.234375 -3.921875 C 8.234375 -3.273438 8.082031 -2.632812 7.78125 -2 C 7.488281 -1.363281 7.039062 -0.84375 6.4375 -0.4375 C 5.84375 -0.03125 5.128906 0.171875 4.296875 0.171875 Z M 4.40625 -0.640625 C 4.894531 -0.640625 5.289062 -0.789062 5.59375 -1.09375 C 5.90625 -1.40625 6.128906 -1.796875 6.265625 -2.265625 C 6.398438 -2.734375 6.46875 -3.222656 6.46875 -3.734375 C 6.46875 -4.796875 6.28125 -5.640625 5.90625 -6.265625 C 5.53125 -6.898438 4.972656 -7.21875 4.234375 -7.21875 C 3.742188 -7.21875 3.34375 -7.054688 3.03125 -6.734375 C 2.71875 -6.421875 2.492188 -6.023438 2.359375 -5.546875 C 2.222656 -5.066406 2.15625 -4.570312 2.15625 -4.0625 C 2.15625 -3.539062 2.226562 -3.015625 2.375 -2.484375 C 2.53125 -1.960938 2.773438 -1.523438 3.109375 -1.171875 C 3.453125 -0.816406 3.882812 -0.640625 4.40625 -0.640625 Z M 3.453125 -8.96875 L 4.703125 -10.28125 C 4.785156 -10.363281 4.878906 -10.429688 4.984375 -10.484375 C 5.085938 -10.535156 5.191406 -10.5625 5.296875 -10.5625 C 5.484375 -10.5625 5.644531 -10.476562 5.78125 -10.3125 C 5.863281 -10.207031 5.90625 -10.09375 5.90625 -9.96875 C 5.90625 -9.832031 5.859375 -9.695312 5.765625 -9.5625 C 5.679688 -9.4375 5.578125 -9.332031 5.453125 -9.25 L 3.859375 -8.421875 Z M 3.453125 -8.96875 "/></g></g></g><g fill="#026924" fill-opacity="1"><g transform="translate(90.391963, 14.999999)"><g><path d="M 2.9375 -4.46875 C 2.75 -4.707031 2.546875 -4.988281 2.328125 -5.3125 L 2.3125 -5.3125 L 2.328125 -1.84375 C 2.328125 -1.425781 2.3125 -1.085938 2.28125 -0.828125 C 2.519531 -0.847656 2.800781 -0.859375 3.125 -0.859375 L 3.125 0 L 0.578125 0 L 0.578125 -0.734375 C 0.773438 -0.742188 0.925781 -0.769531 1.03125 -0.8125 C 1.132812 -0.851562 1.21875 -0.941406 1.28125 -1.078125 C 1.34375 -1.210938 1.375 -1.425781 1.375 -1.71875 L 1.34375 -6.015625 C 1.34375 -6.515625 1.359375 -6.847656 1.390625 -7.015625 L 0.53125 -6.984375 L 0.53125 -7.859375 L 2.296875 -7.859375 L 5.734375 -3.515625 C 6.046875 -3.109375 6.304688 -2.753906 6.515625 -2.453125 L 6.53125 -2.453125 L 6.53125 -6.015625 C 6.53125 -6.503906 6.539062 -6.835938 6.5625 -7.015625 L 5.71875 -6.984375 L 5.71875 -7.859375 L 8.28125 -7.859375 L 8.28125 -7.109375 C 8.070312 -7.097656 7.914062 -7.070312 7.8125 -7.03125 C 7.707031 -7 7.625 -6.914062 7.5625 -6.78125 C 7.507812 -6.644531 7.484375 -6.429688 7.484375 -6.140625 L 7.484375 0.109375 L 6.53125 0.109375 Z M 2.9375 -4.46875 "/></g></g></g><g fill="#026924" fill-opacity="1"><g transform="translate(104.174036, 14.999999)"><g><path d="M 0.5625 -0.734375 C 0.757812 -0.742188 0.910156 -0.769531 1.015625 -0.8125 C 1.117188 -0.851562 1.203125 -0.941406 1.265625 -1.078125 C 1.328125 -1.210938 1.359375 -1.425781 1.359375 -1.71875 L 1.359375 -6.015625 C 1.359375 -6.429688 1.375 -6.765625 1.40625 -7.015625 L 0.5625 -6.984375 L 0.5625 -7.859375 L 3.828125 -7.859375 C 4.765625 -7.859375 5.554688 -7.671875 6.203125 -7.296875 C 6.847656 -6.929688 7.328125 -6.453125 7.640625 -5.859375 C 7.960938 -5.273438 8.125 -4.65625 8.125 -4 C 8.125 -3.34375 7.972656 -2.707031 7.671875 -2.09375 C 7.367188 -1.488281 6.890625 -0.988281 6.234375 -0.59375 C 5.578125 -0.195312 4.753906 0 3.765625 0 L 0.5625 0 Z M 4 -0.8125 C 4.53125 -0.8125 4.96875 -0.953125 5.3125 -1.234375 C 5.664062 -1.515625 5.925781 -1.875 6.09375 -2.3125 C 6.257812 -2.757812 6.34375 -3.242188 6.34375 -3.765625 C 6.34375 -4.898438 6.109375 -5.738281 5.640625 -6.28125 C 5.179688 -6.832031 4.53125 -7.109375 3.6875 -7.109375 C 3.4375 -7.109375 3.253906 -7.046875 3.140625 -6.921875 C 3.035156 -6.796875 2.984375 -6.539062 2.984375 -6.15625 L 2.984375 -1.84375 C 2.984375 -1.425781 2.96875 -1.085938 2.9375 -0.828125 C 2.976562 -0.835938 3.050781 -0.84375 3.15625 -0.84375 L 3.640625 -0.828125 C 3.734375 -0.816406 3.851562 -0.8125 4 -0.8125 Z M 4 -0.8125 "/></g></g></g><g fill="#026924" fill-opacity="1"><g transform="translate(113.765008, 14.999999)"><g><path d="M 0.5625 -0.734375 C 0.757812 -0.742188 0.910156 -0.769531 1.015625 -0.8125 C 1.117188 -0.851562 1.203125 -0.941406 1.265625 -1.078125 C 1.328125 -1.210938 1.359375 -1.425781 1.359375 -1.71875 L 1.359375 -6.015625 C 1.359375 -6.429688 1.375 -6.765625 1.40625 -7.015625 L 0.5625 -6.984375 L 0.5625 -7.859375 L 6.171875 -7.859375 L 6.234375 -5.671875 L 5.5 -5.671875 C 5.5 -6.222656 5.363281 -6.601562 5.09375 -6.8125 C 4.832031 -7.03125 4.515625 -7.132812 4.140625 -7.125 L 3.734375 -7.109375 C 3.554688 -7.097656 3.414062 -7.070312 3.3125 -7.03125 C 3.207031 -7 3.125 -6.910156 3.0625 -6.765625 C 3.007812 -6.617188 2.984375 -6.410156 2.984375 -6.140625 L 2.984375 -4.453125 L 4.296875 -4.453125 C 4.285156 -4.578125 4.269531 -4.90625 4.25 -5.4375 L 5.109375 -5.4375 L 5.109375 -2.703125 L 4.375 -2.703125 C 4.375 -3.003906 4.328125 -3.222656 4.234375 -3.359375 C 4.140625 -3.503906 4.015625 -3.597656 3.859375 -3.640625 C 3.710938 -3.679688 3.519531 -3.695312 3.28125 -3.6875 L 2.984375 -3.6875 L 2.984375 -1.84375 C 2.984375 -1.4375 2.96875 -1.109375 2.9375 -0.859375 L 4.4375 -0.859375 C 4.820312 -0.859375 5.144531 -0.984375 5.40625 -1.234375 C 5.675781 -1.492188 5.8125 -1.90625 5.8125 -2.46875 L 6.546875 -2.46875 L 6.484375 0 L 0.5625 0 Z M 0.5625 -0.734375 "/></g></g></g><g fill="#026924" fill-opacity="1"><g transform="translate(47.949022, 29.999998)"><g><path d="M 0.046875 -0.78125 C 0.242188 -0.78125 0.40625 -0.832031 0.53125 -0.9375 C 0.664062 -1.050781 0.769531 -1.1875 0.84375 -1.34375 C 0.914062 -1.507812 1.007812 -1.742188 1.125 -2.046875 L 3.3125 -8.0625 L 4.09375 -8.0625 L 6.484375 -1.9375 C 6.546875 -1.789062 6.609375 -1.601562 6.671875 -1.375 C 6.742188 -1.15625 6.785156 -0.972656 6.796875 -0.828125 C 7.046875 -0.847656 7.265625 -0.859375 7.453125 -0.859375 L 7.453125 0 L 4.4375 0 L 4.4375 -0.734375 C 4.789062 -0.734375 4.96875 -0.882812 4.96875 -1.1875 C 4.96875 -1.332031 4.925781 -1.515625 4.84375 -1.734375 L 4.625 -2.34375 L 2.1875 -2.296875 L 2.015625 -1.765625 C 1.984375 -1.710938 1.925781 -1.578125 1.84375 -1.359375 C 1.769531 -1.148438 1.707031 -0.984375 1.65625 -0.859375 C 1.894531 -0.878906 2.160156 -0.890625 2.453125 -0.890625 L 2.453125 0 L 0.046875 0 Z M 4.34375 -3.140625 L 3.828125 -4.546875 C 3.609375 -5.160156 3.46875 -5.671875 3.40625 -6.078125 L 3.390625 -6.078125 C 3.265625 -5.535156 3.125 -5.039062 2.96875 -4.59375 L 2.46875 -3.140625 Z M 4.34375 -3.140625 "/></g></g></g><g fill="#026924" fill-opacity="1"><g transform="translate(56.520509, 29.999998)"><g><path d="M 0.5625 -0.734375 C 0.757812 -0.742188 0.910156 -0.769531 1.015625 -0.8125 C 1.117188 -0.851562 1.203125 -0.941406 1.265625 -1.078125 C 1.328125 -1.210938 1.359375 -1.425781 1.359375 -1.71875 L 1.359375 -6.015625 C 1.359375 -6.429688 1.375 -6.765625 1.40625 -7.015625 L 0.5625 -6.984375 L 0.5625 -7.859375 L 3.75 -7.875 C 4.757812 -7.882812 5.550781 -7.679688 6.125 -7.265625 C 6.695312 -6.859375 6.984375 -6.242188 6.984375 -5.421875 C 6.984375 -4.992188 6.863281 -4.582031 6.625 -4.1875 C 6.382812 -3.800781 6.023438 -3.484375 5.546875 -3.234375 C 5.066406 -2.992188 4.484375 -2.863281 3.796875 -2.84375 L 3.359375 -2.828125 L 2.984375 -2.84375 L 2.984375 -1.84375 C 2.984375 -1.425781 2.96875 -1.085938 2.9375 -0.828125 C 3.175781 -0.847656 3.492188 -0.859375 3.890625 -0.859375 L 3.890625 0 L 0.5625 0 Z M 3.484375 -3.640625 C 4.085938 -3.640625 4.53125 -3.789062 4.8125 -4.09375 C 5.09375 -4.40625 5.234375 -4.851562 5.234375 -5.4375 C 5.234375 -6.539062 4.734375 -7.09375 3.734375 -7.09375 C 3.472656 -7.09375 3.28125 -7.035156 3.15625 -6.921875 C 3.039062 -6.804688 2.984375 -6.566406 2.984375 -6.203125 L 2.984375 -3.6875 C 3.140625 -3.65625 3.304688 -3.640625 3.484375 -3.640625 Z M 3.484375 -3.640625 "/></g></g></g><g fill="#026924" fill-opacity="1"><g transform="translate(64.76711, 29.999998)"><g><path d="M 4.3125 0.171875 C 3.144531 0.171875 2.316406 -0.132812 1.828125 -0.75 C 1.335938 -1.375 1.09375 -2.222656 1.09375 -3.296875 L 1.09375 -6.015625 C 1.09375 -6.429688 1.109375 -6.765625 1.140625 -7.015625 L 0.296875 -6.984375 L 0.296875 -7.859375 L 3.515625 -7.859375 L 3.515625 -7.109375 C 3.316406 -7.097656 3.160156 -7.070312 3.046875 -7.03125 C 2.941406 -7 2.859375 -6.914062 2.796875 -6.78125 C 2.742188 -6.644531 2.71875 -6.429688 2.71875 -6.140625 L 2.71875 -3.046875 C 2.71875 -1.460938 3.34375 -0.671875 4.59375 -0.671875 C 5.1875 -0.671875 5.644531 -0.875 5.96875 -1.28125 C 6.300781 -1.6875 6.46875 -2.285156 6.46875 -3.078125 L 6.46875 -6.015625 C 6.46875 -6.515625 6.476562 -6.847656 6.5 -7.015625 L 5.65625 -6.984375 L 5.65625 -7.859375 L 8.25 -7.859375 L 8.25 -7.109375 C 8.050781 -7.097656 7.898438 -7.070312 7.796875 -7.03125 C 7.691406 -7 7.609375 -6.914062 7.546875 -6.78125 C 7.484375 -6.644531 7.453125 -6.429688 7.453125 -6.140625 L 7.453125 -3.328125 C 7.453125 -2.097656 7.171875 -1.207031 6.609375 -0.65625 C 6.046875 -0.101562 5.28125 0.171875 4.3125 0.171875 Z M 4.3125 0.171875 "/></g></g></g><g fill="#026924" fill-opacity="1"><g transform="translate(74.369286, 29.999998)"><g><path d="M 0.5625 -0.734375 C 0.757812 -0.742188 0.910156 -0.769531 1.015625 -0.8125 C 1.117188 -0.851562 1.203125 -0.941406 1.265625 -1.078125 C 1.328125 -1.210938 1.359375 -1.425781 1.359375 -1.71875 L 1.359375 -6.015625 C 1.359375 -6.429688 1.375 -6.765625 1.40625 -7.015625 L 0.5625 -6.984375 L 0.5625 -7.859375 L 6.171875 -7.859375 L 6.234375 -5.671875 L 5.5 -5.671875 C 5.5 -6.222656 5.363281 -6.601562 5.09375 -6.8125 C 4.832031 -7.03125 4.515625 -7.132812 4.140625 -7.125 L 3.734375 -7.109375 C 3.554688 -7.097656 3.414062 -7.070312 3.3125 -7.03125 C 3.207031 -7 3.125 -6.910156 3.0625 -6.765625 C 3.007812 -6.617188 2.984375 -6.410156 2.984375 -6.140625 L 2.984375 -4.453125 L 4.296875 -4.453125 C 4.285156 -4.578125 4.269531 -4.90625 4.25 -5.4375 L 5.109375 -5.4375 L 5.109375 -2.703125 L 4.375 -2.703125 C 4.375 -3.003906 4.328125 -3.222656 4.234375 -3.359375 C 4.140625 -3.503906 4.015625 -3.597656 3.859375 -3.640625 C 3.710938 -3.679688 3.519531 -3.695312 3.28125 -3.6875 L 2.984375 -3.6875 L 2.984375 -1.84375 C 2.984375 -1.4375 2.96875 -1.109375 2.9375 -0.859375 L 4.4375 -0.859375 C 4.820312 -0.859375 5.144531 -0.984375 5.40625 -1.234375 C 5.675781 -1.492188 5.8125 -1.90625 5.8125 -2.46875 L 6.546875 -2.46875 L 6.484375 0 L 0.5625 0 Z M 0.5625 -0.734375 "/></g></g></g><g fill="#026924" fill-opacity="1"><g transform="translate(82.447841, 29.999998)"><g><path d="M 3.4375 0.171875 C 3.132812 0.171875 2.804688 0.125 2.453125 0.03125 C 2.109375 -0.0625 1.789062 -0.195312 1.5 -0.375 L 1.484375 -0.375 L 1.53125 0.09375 L 0.65625 0.09375 L 0.65625 -2.53125 L 1.40625 -2.53125 C 1.5 -1.914062 1.734375 -1.441406 2.109375 -1.109375 C 2.484375 -0.785156 2.941406 -0.625 3.484375 -0.625 C 3.867188 -0.625 4.1875 -0.726562 4.4375 -0.9375 C 4.695312 -1.144531 4.828125 -1.394531 4.828125 -1.6875 C 4.828125 -1.925781 4.738281 -2.128906 4.5625 -2.296875 C 4.394531 -2.472656 4.207031 -2.609375 4 -2.703125 C 3.800781 -2.796875 3.476562 -2.9375 3.03125 -3.125 C 2.207031 -3.445312 1.578125 -3.816406 1.140625 -4.234375 C 0.703125 -4.660156 0.484375 -5.210938 0.484375 -5.890625 C 0.484375 -6.234375 0.566406 -6.566406 0.734375 -6.890625 C 0.910156 -7.210938 1.191406 -7.484375 1.578125 -7.703125 C 1.972656 -7.921875 2.484375 -8.03125 3.109375 -8.03125 C 3.429688 -8.03125 3.765625 -7.984375 4.109375 -7.890625 C 4.460938 -7.796875 4.757812 -7.664062 5 -7.5 L 4.953125 -7.953125 L 5.828125 -7.953125 L 5.828125 -5.34375 L 5.09375 -5.34375 C 5 -5.957031 4.785156 -6.421875 4.453125 -6.734375 C 4.117188 -7.054688 3.691406 -7.21875 3.171875 -7.21875 C 2.835938 -7.21875 2.546875 -7.125 2.296875 -6.9375 C 2.054688 -6.757812 1.9375 -6.535156 1.9375 -6.265625 C 1.9375 -5.929688 2.070312 -5.648438 2.34375 -5.421875 C 2.625 -5.203125 3.097656 -4.957031 3.765625 -4.6875 C 4.515625 -4.382812 5.125 -4.035156 5.59375 -3.640625 C 6.070312 -3.253906 6.3125 -2.738281 6.3125 -2.09375 C 6.3125 -1.644531 6.191406 -1.25 5.953125 -0.90625 C 5.710938 -0.5625 5.375 -0.296875 4.9375 -0.109375 C 4.507812 0.078125 4.007812 0.171875 3.4375 0.171875 Z M 3.4375 0.171875 "/></g></g></g><g fill="#026924" fill-opacity="1"><g transform="translate(90.235122, 29.999998)"><g><path d="M 2.015625 -0.734375 C 2.222656 -0.742188 2.378906 -0.769531 2.484375 -0.8125 C 2.585938 -0.851562 2.664062 -0.941406 2.71875 -1.078125 C 2.78125 -1.210938 2.8125 -1.425781 2.8125 -1.71875 L 2.8125 -7.09375 L 2.296875 -7.09375 C 1.859375 -7.082031 1.519531 -6.929688 1.28125 -6.640625 C 1.039062 -6.347656 0.921875 -5.90625 0.921875 -5.3125 L 0.171875 -5.3125 L 0.234375 -7.859375 L 7.03125 -7.859375 L 7.09375 -5.3125 L 6.359375 -5.3125 C 6.359375 -5.90625 6.234375 -6.351562 5.984375 -6.65625 C 5.742188 -6.957031 5.410156 -7.101562 4.984375 -7.09375 L 4.4375 -7.09375 L 4.4375 -1.84375 C 4.4375 -1.34375 4.421875 -1.003906 4.390625 -0.828125 C 4.640625 -0.847656 4.941406 -0.859375 5.296875 -0.859375 L 5.296875 0 L 2.015625 0 Z M 2.015625 -0.734375 "/></g></g></g><g fill="#026924" fill-opacity="1"><g transform="translate(98.604952, 29.999998)"><g><path d="M 0.046875 -0.78125 C 0.242188 -0.78125 0.40625 -0.832031 0.53125 -0.9375 C 0.664062 -1.050781 0.769531 -1.1875 0.84375 -1.34375 C 0.914062 -1.507812 1.007812 -1.742188 1.125 -2.046875 L 3.3125 -8.0625 L 4.09375 -8.0625 L 6.484375 -1.9375 C 6.546875 -1.789062 6.609375 -1.601562 6.671875 -1.375 C 6.742188 -1.15625 6.785156 -0.972656 6.796875 -0.828125 C 7.046875 -0.847656 7.265625 -0.859375 7.453125 -0.859375 L 7.453125 0 L 4.4375 0 L 4.4375 -0.734375 C 4.789062 -0.734375 4.96875 -0.882812 4.96875 -1.1875 C 4.96875 -1.332031 4.925781 -1.515625 4.84375 -1.734375 L 4.625 -2.34375 L 2.1875 -2.296875 L 2.015625 -1.765625 C 1.984375 -1.710938 1.925781 -1.578125 1.84375 -1.359375 C 1.769531 -1.148438 1.707031 -0.984375 1.65625 -0.859375 C 1.894531 -0.878906 2.160156 -0.890625 2.453125 -0.890625 L 2.453125 0 L 0.046875 0 Z M 4.34375 -3.140625 L 3.828125 -4.546875 C 3.609375 -5.160156 3.46875 -5.671875 3.40625 -6.078125 L 3.390625 -6.078125 C 3.265625 -5.535156 3.125 -5.039062 2.96875 -4.59375 L 2.46875 -3.140625 Z M 4.34375 -3.140625 "/></g></g></g><g fill="#026924" fill-opacity="1"><g transform="translate(107.176439, 29.999998)"><g><path d="M 3.4375 0.171875 C 3.132812 0.171875 2.804688 0.125 2.453125 0.03125 C 2.109375 -0.0625 1.789062 -0.195312 1.5 -0.375 L 1.484375 -0.375 L 1.53125 0.09375 L 0.65625 0.09375 L 0.65625 -2.53125 L 1.40625 -2.53125 C 1.5 -1.914062 1.734375 -1.441406 2.109375 -1.109375 C 2.484375 -0.785156 2.941406 -0.625 3.484375 -0.625 C 3.867188 -0.625 4.1875 -0.726562 4.4375 -0.9375 C 4.695312 -1.144531 4.828125 -1.394531 4.828125 -1.6875 C 4.828125 -1.925781 4.738281 -2.128906 4.5625 -2.296875 C 4.394531 -2.472656 4.207031 -2.609375 4 -2.703125 C 3.800781 -2.796875 3.476562 -2.9375 3.03125 -3.125 C 2.207031 -3.445312 1.578125 -3.816406 1.140625 -4.234375 C 0.703125 -4.660156 0.484375 -5.210938 0.484375 -5.890625 C 0.484375 -6.234375 0.566406 -6.566406 0.734375 -6.890625 C 0.910156 -7.210938 1.191406 -7.484375 1.578125 -7.703125 C 1.972656 -7.921875 2.484375 -8.03125 3.109375 -8.03125 C 3.429688 -8.03125 3.765625 -7.984375 4.109375 -7.890625 C 4.460938 -7.796875 4.757812 -7.664062 5 -7.5 L 4.953125 -7.953125 L 5.828125 -7.953125 L 5.828125 -5.34375 L 5.09375 -5.34375 C 5 -5.957031 4.785156 -6.421875 4.453125 -6.734375 C 4.117188 -7.054688 3.691406 -7.21875 3.171875 -7.21875 C 2.835938 -7.21875 2.546875 -7.125 2.296875 -6.9375 C 2.054688 -6.757812 1.9375 -6.535156 1.9375 -6.265625 C 1.9375 -5.929688 2.070312 -5.648438 2.34375 -5.421875 C 2.625 -5.203125 3.097656 -4.957031 3.765625 -4.6875 C 4.515625 -4.382812 5.125 -4.035156 5.59375 -3.640625 C 6.070312 -3.253906 6.3125 -2.738281 6.3125 -2.09375 C 6.3125 -1.644531 6.191406 -1.25 5.953125 -0.90625 C 5.710938 -0.5625 5.375 -0.296875 4.9375 -0.109375 C 4.507812 0.078125 4.007812 0.171875 3.4375 0.171875 Z M 3.4375 0.171875 "/></g></g></g></svg>